{
  "accessors": [
    {
      "bufferView": 2,
      "componentType": 5126,
      "count": 615,
      "max": [
        1.2898039817810059,
        1.6506211757659912,
        -1.5771821182397616e-08
      ],
      "min": [
        -1.2898039817810059,
        -0.9289867877960205,
        -0.32027217745780945
      ],
      "type": "VEC3"
    },
    {
      "bufferView": 2,
      "byteOffset": 7380,
      "componentType": 5126,
      "count": 615,
      "max": [
        1.0,
        1.0,
        1.0
      ],
      "min": [
        -1.0,
        -1.0,
        -1.0
      ],
      "type": "VEC3"
    },
    {
      "bufferView": 3,
      "componentType": 5126,
      "count": 615,
      "max": [
        0.9997435212135315,
        0.9996505379676819,
        1.0,
        1.0
      ],
      "min": [
        -0.9999688863754272,
        -0.9999478459358215,
        -0.9999971389770508,
        1.0
      ],
      "type": "VEC4"
    },
    {
      "bufferView": 1,
      "componentType": 5126,
      "count": 615,
      "max": [
        0.6403223276138306,
        0.9998928308486938
      ],
      "min": [
        0.00010720010322984308,
        0.00010720010322984308
      ],
      "type": "VEC2"
    },
    {
      "bufferView": 1,
      "byteOffset": 4920,
      "componentType": 5126,
      "count": 615,
      "max": [
        0.6403223276138306,
        0.9998928308486938
      ],
      "min": [
        0.00010720010322984308,
        0.00010720010322984308
      ],
      "type": "VEC2"
    },
    {
      "bufferView": 1,
      "byteOffset": 9840,
      "componentType": 5126,
      "count": 615,
      "max": [
        0.6403223276138306,
        0.9998928308486938
      ],
      "min": [
        0.00010720010322984308,
        0.00010720010322984308
      ],
      "type": "VEC2"
    },
    {
      "bufferView": 0,
      "componentType": 5125,
      "count": 1290,
      "type": "SCALAR"
    },
    {
      "bufferView": 2,
      "byteOffset": 14760,
      "componentType": 5126,
      "count": 677,
      "max": [
        1.333138346672058,
        1.6939555406570435,
        0.06479457020759583
      ],
      "min": [
        -1.3287793397903442,
        -0.986129105091095,
        -0.3850667476654053
      ],
      "type": "VEC3"
    },
    {
      "bufferView": 2,
      "byteOffset": 22884,
      "componentType": 5126,
      "count": 677,
      "max": [
        0.9998244643211365,
        0.9999936819076538,
        1.0
      ],
      "min": [
        -1.0,
        -1.0,
        -1.0
      ],
      "type": "VEC3"
    },
    {
      "bufferView": 3,
      "byteOffset": 9840,
      "componentType": 5126,
      "count": 677,
      "max": [
        0.9999871253967285,
        1.0,
        1.0,
        1.0
      ],
      "min": [
        -0.9999368190765381,
        -0.9999927282333374,
        -1.0,
        -1.0
      ],
      "type": "VEC4"
    },
    {
      "bufferView": 1,
      "byteOffset": 14760,
      "componentType": 5126,
      "count": 677,
      "max": [
        0.9244120121002197,
        0.9996734857559204
      ],
      "min": [
        0.0003264405531808734,
        0.0003264405531808734
      ],
      "type": "VEC2"
    },
    {
      "bufferView": 1,
      "byteOffset": 20176,
      "componentType": 5126,
      "count": 677,
      "max": [
        0.9244120121002197,
        0.9996734857559204
      ],
      "min": [
        0.0003264405531808734,
        0.0003264405531808734
      ],
      "type": "VEC2"
    },
    {
      "bufferView": 1,
      "byteOffset": 25592,
      "componentType": 5126,
      "count": 677,
      "max": [
        0.9244120121002197,
        0.9996734857559204
      ],
      "min": [
        0.0003264405531808734,
        0.0003264405531808734
      ],
      "type": "VEC2"
    },
    {
      "bufferView": 0,
      "byteOffset": 5160,
      "componentType": 5125,
      "count": 1374,
      "type": "SCALAR"
    },
    {
      "bufferView": 2,
      "byteOffset": 31008,
      "componentType": 5126,
      "count": 33,
      "max": [
        0.8958335518836975,
        0.8958335518836975,
        0.0
      ],
      "min": [
        -0.8958335518836975,
        -0.8958335518836975,
        0.0
      ],
      "type": "VEC3"
    },
    {
      "bufferView": 2,
      "byteOffset": 31404,
      "componentType": 5126,
      "count": 33,
      "max": [
        0.0,
        0.0,
        1.0
      ],
      "min": [
        0.0,
        0.0,
        1.0
      ],
      "type": "VEC3"
    },
    {
      "bufferView": 3,
      "byteOffset": 20672,
      "componentType": 5126,
      "count": 33,
      "max": [
        1.0,
        0.525088369846344,
        0.0,
        1.0
      ],
      "min": [
        0.851047694683075,
        -0.5250883102416992,
        0.0,
        1.0
      ],
      "type": "VEC4"
    },
    {
      "bufferView": 1,
      "byteOffset": 31008,
      "componentType": 5126,
      "count": 33,
      "max": [
        1.000000238418579,
        1.000000238418579
      ],
      "min": [
        0.0,
        0.0
      ],
      "type": "VEC2"
    },
    {
      "bufferView": 1,
      "byteOffset": 31272,
      "componentType": 5126,
      "count": 33,
      "max": [
        1.000000238418579,
        1.000000238418579
      ],
      "min": [
        0.0,
        0.0
      ],
      "type": "VEC2"
    },
    {
      "bufferView": 1,
      "byteOffset": 31536,
      "componentType": 5126,
      "count": 33,
      "max": [
        1.000000238418579,
        1.000000238418579
      ],
      "min": [
        0.0,
        0.0
      ],
      "type": "VEC2"
    },
    {
      "bufferView": 0,
      "byteOffset": 10656,
      "componentType": 5125,
      "count": 96,
      "type": "SCALAR"
    }
  ],
  "asset": {
    "extras": {
      "author": "Nick Broad (https://sketchfab.com/nickbroad)",
      "license": "CC-BY-4.0 (http://creativecommons.org/licenses/by/4.0/)",
      "source": "https://sketchfab.com/3d-models/magic-portal-dc447f04768a4bfe8932d976bd2b1677",
      "title": "Magic Portal"
    },
    "generator": "Sketchfab-12.68.0",
    "version": "2.0"
  },
  "bufferViews": [
    {
      "buffer": 0,
      "byteLength": 11040,
      "name": "floatBufferViews",
      "target": 34963
    },
    {
      "buffer": 0,
      "byteLength": 31800,
      "byteOffset": 11040,
      "byteStride": 8,
      "name": "floatBufferViews",
      "target": 34962
    },
    {
      "buffer": 0,
      "byteLength": 31800,
      "byteOffset": 42840,
      "byteStride": 12,
      "name": "floatBufferViews",
      "target": 34962
    },
    {
      "buffer": 0,
      "byteLength": 21200,
      "byteOffset": 74640,
      "byteStride": 16,
      "name": "floatBufferViews",
      "target": 34962
    }
  ],
  "buffers": [
    {
      "byteLength": 95840,
      "uri": "scene.bin"
    }
  ],
  "extensionsUsed": [
    "KHR_materials_transmission"
  ],
  "images": [
    {
      "uri": "textures/MagicStoneMoss_baseColor.png"
    },
    {
      "uri": "textures/MagicStoneMoss_emissive.png"
    },
    {
      "uri": "textures/MagicStoneMoss_normal.png"
    },
    {
      "uri": "textures/MagicStone_baseColor.png"
    },
    {
      "uri": "textures/MagicStone_normal.png"
    },
    {
      "uri": "textures/PortalSurface_baseColor.png"
    },
    {
      "uri": "textures/PortalSurface_emissive.png"
    },
    {
      "uri": "textures/PortalSurface_normal.png"
    }
  ],
  "materials": [
    {
      "doubleSided": true,
      "emissiveFactor": [
        1.0,
        1.0,
        1.0
      ],
      "emissiveTexture": {
        "index": 1
      },
      "name": "MagicStoneMoss",
      "normalTexture": {
        "index": 2
      },
      "pbrMetallicRoughness": {
        "baseColorTexture": {
          "index": 0
        },
        "metallicFactor": 0.0,
        "roughnessFactor": 0.5
      }
    },
    {
      "doubleSided": true,
      "emissiveFactor": [
        1.0,
        1.0,
        1.0
      ],
      "emissiveTexture": {
        "index": 1
      },
      "name": "MagicStone",
      "normalTexture": {
        "index": 4
      },
      "pbrMetallicRoughness": {
        "baseColorTexture": {
          "index": 3
        },
        "metallicFactor": 0.0,
        "roughnessFactor": 0.5
      }
    },
    {
      "alphaMode": "BLEND",
      "doubleSided": true,
      "emissiveFactor": [
        1.0,
        1.0,
        1.0
      ],
      "emissiveTexture": {
        "index": 6
      },
      "extensions": {
        "KHR_materials_transmission": {
          "transmissionFactor": 0.5
        }
      },
      "name": "PortalSurface",
      "normalTexture": {
        "index": 7
      },
      "pbrMetallicRoughness": {
        "baseColorFactor": [
          1.0,
          1.0,
          1.0,
          0.5
        ],
        "baseColorTexture": {
          "index": 5
        },
        "metallicFactor": 0.0,
        "roughnessFactor": 0.045931051848
      }
    }
  ],
  "meshes": [
    {
      "name": "BrickSmall_low_MagicStoneMoss_0",
      "primitives": [
        {
          "attributes": {
            "NORMAL": 1,
            "POSITION": 0,
            "TANGENT": 2,
            "TEXCOORD_0": 3,
            "TEXCOORD_1": 4,
            "TEXCOORD_2": 5
          },
          "indices": 6,
          "material": 0,
          "mode": 4
        }
      ]
    },
    {
      "name": "BrickLarge_low_MagicStone_0",
      "primitives": [
        {
          "attributes": {
            "NORMAL": 8,
            "POSITION": 7,
            "TANGENT": 9,
            "TEXCOORD_0": 10,
            "TEXCOORD_1": 11,
            "TEXCOORD_2": 12
          },
          "indices": 13,
          "material": 1,
          "mode": 4
        }
      ]
    },
    {
      "name": "PortalSurface_low_PortalSurface_0",
      "primitives": [
        {
          "attributes": {
            "NORMAL": 15,
            "POSITION": 14,
            "TANGENT": 16,
            "TEXCOORD_0": 17,
            "TEXCOORD_1": 18,
            "TEXCOORD_2": 19
          },
          "indices": 20,
          "material": 2,
          "mode": 4
        }
      ]
    }
  ],
  "nodes": [
    {
      "children": [
        1
      ],
      "matrix": [
        1.0,
        0.0,
        0.0,
        0.0,
        0.0,
        2.220446049250313e-16,
        -1.0,
        0.0,
        0.0,
        1.0,
        2.220446049250313e-16,
        0.0,
        0.0,
        0.0,
        0.0,
        1.0
      ],
      "name": "Sketchfab_model"
    },
    {
      "children": [
        2
      ],
      "matrix": [
        0.009999999776482582,
        0.0,
        0.0,
        0.0,
        0.0,
        0.0,
        0.009999999776482582,
        0.0,
        0.0,
        -0.009999999776482582,
        0.0,
        0.0,
        0.0,
        0.0,
        0.0,
        1.0
      ],
      "name": "3e5d370798dd4d69b43ee2bcb29da87d.fbx"
    },
    {
      "children": [
        3,
        5,
        7
      ],
      "name": "RootNode"
    },
    {
      "children": [
        4
      ],
      "matrix": [
        100.0,
        0.0,
        0.0,
        0.0,
        0.0,
        99.9999999999999,
        4.371138828673792e-06,
        0.0,
        0.0,
        -4.371138828673792e-06,
        99.9999999999999,
        0.0,
        0.0,
        100.0,
        0.0,
        1.0
      ],
      "name": "BrickSmall_low"
    },
    {
      "mesh": 0,
      "name": "BrickSmall_low_MagicStoneMoss_0"
    },
    {
      "children": [
        6
      ],
      "matrix": [
        100.0,
        0.0,
        0.0,
        0.0,
        0.0,
        99.9999999999999,
        4.371138828673792e-06,
        0.0,
        0.0,
        -4.371138828673792e-06,
        99.9999999999999,
        0.0,
        0.0,
        100.0,
        0.0,
        1.0
      ],
      "name": "BrickLarge_low"
    },
    {
      "mesh": 1,
      "name": "BrickLarge_low_MagicStone_0"
    },
    {
      "children": [
        8
      ],
      "matrix": [
        123.64385223388672,
        0.0,
        0.0,
        0.0,
        0.0,
        123.64385223388659,
        5.404644873534676e-06,
        0.0,
        0.0,
        -5.404644873534676e-06,
        123.64385223388659,
        0.0,
        0.0,
        137.21102905273438,
        -14.575502395629883,
        1.0
      ],
      "name": "PortalSurface_low"
    },
    {
      "mesh": 2,
      "name": "PortalSurface_low_PortalSurface_0"
    }
  ],
  "samplers": [
    {
      "magFilter": 9729,
      "minFilter": 9987,
      "wrapS": 10497,
      "wrapT": 10497
    }
  ],
  "scene": 0,
  "scenes": [
    {
      "name": "Sketchfab_Scene",
      "nodes": [
        0
      ]
    }
  ],
  "textures": [
    {
      "sampler": 0,
      "source": 0
    },
    {
      "sampler": 0,
      "source": 1
    },
    {
      "sampler": 0,
      "source": 2
    },
    {
      "sampler": 0,
      "source": 3
    },
    {
      "sampler": 0,
      "source": 4
    },
    {
      "sampler": 0,
      "source": 5
    },
    {
      "sampler": 0,
      "source": 6
    },
    {
      "sampler": 0,
      "source": 7
    }
  ]
}
