<?xml version="1.0" standalone="no"?>
<!DOCTYPE svg PUBLIC "-//W3C//DTD SVG 1.1//EN" "http://www.w3.org/Graphics/SVG/1.1/DTD/svg11.dtd" >
<svg xmlns="http://www.w3.org/2000/svg">
<metadata>Generated by IcoMoon</metadata>
<defs>
<font id="HeitoIcons" horiz-adv-x="1024">
<font-face units-per-em="1024" ascent="960" descent="-64" />
<missing-glyph horiz-adv-x="1024" />
<glyph unicode="&#x20;" horiz-adv-x="512" d="" />
<glyph unicode="&#xe900;" glyph-name="linux" d="M477.536 701.44c-0.8-2.304-4.512-1.952-6.624-2.624-1.888-0.992-3.424-2.72-5.6-2.72-1.984 0-5.184 0.8-5.44 2.72-0.384 2.624 3.52 5.312 5.984 5.312 1.6 0.768 3.456 1.184 5.408 1.184 1.792 0 3.488-0.352 5.024-1.024l-0.096 0.032c0.704-0.288 1.216-0.96 1.216-1.76 0-0.096 0-0.16-0.032-0.256v0-0.8h0.128zM499.552 701.44v0.864c-0.256 0.8 0.512 1.664 1.152 1.984 1.472 0.64 3.2 1.024 5.024 1.024 1.952 0 3.808-0.448 5.44-1.216l-0.064 0.032c2.528 0 6.4-2.688 5.984-5.408-0.224-1.952-3.392-2.624-5.408-2.624-2.208 0-3.68 1.728-5.632 2.72-2.080 0.736-5.824 0.32-6.528 2.592zM542.816 638.144c-17.024-10.784-37.152-18.368-58.72-21.312l-0.768-0.096c-19.392 1.12-37.024 7.936-51.424 18.816l0.224-0.16c-6.144 5.344-11.2 10.72-14.912 13.408-6.56 5.344-5.76 13.312-2.944 13.312 4.352-0.64 5.152-5.344 7.968-8 3.84-2.624 8.608-8 14.4-13.312 12.704-10.496 28.768-17.312 46.4-18.656l0.288-0.032c20.928 1.824 39.968 8.544 56.416 18.944l-0.512-0.32c7.808 5.408 17.792 13.344 25.92 18.688 6.24 5.44 5.952 10.688 11.168 10.688 5.12-0.64 1.376-5.344-5.888-13.28-7.872-6.016-16.864-12.192-26.176-17.92l-1.408-0.8zM256.544 275.296h0.384c2.208 0 4.384-0.224 6.496-0.608l-0.224 0.032c17.408-4.48 31.744-15.296 40.736-29.792l0.16-0.288 36.384-66.528 0.128-0.128c14.624-24.736 30.336-46.144 47.904-65.888l-0.352 0.416c15.68-16.64 26.24-38.272 29.088-62.272l0.064-0.512v-0.256c-0.384-26.144-19.616-47.712-44.672-51.712l-0.288-0.032c-6.4-0.992-13.824-1.536-21.344-1.536-27.424 0-53.088 7.456-75.104 20.48l0.672-0.384c-33.696 14.112-72.8 22.848-113.76 24.064h-0.48c-11.904 0.8-22.272 6.88-28.832 15.872l-0.064 0.096c-1.728 5.568-2.72 11.968-2.72 18.624 0 11.2 2.816 21.728 7.808 30.912l-0.16-0.352v0.16l0.096 0.128c1.312 6.016 2.080 12.96 2.080 20.064 0 8.768-1.152 17.248-3.328 25.312l0.16-0.672c-1.312 4.8-2.080 10.336-2.080 16.064 0 7.744 1.376 15.136 3.936 21.984l-0.128-0.448c6.4 13.344 15.84 16 27.584 21.312 14.016 4.256 26.208 10.688 36.832 18.976l-0.256-0.192h0.064v0.096c10.24 10.72 17.792 24.032 26.72 33.504 6.24 7.968 15.744 13.12 26.464 13.44h0.064zM688.992 277.248c-0.032-0.544-0.032-1.216-0.032-1.888 0-23.776 14.368-44.192 34.912-53.056l0.384-0.16c1.536-0.096 3.328-0.16 5.12-0.16 26.592 0 50.4 11.872 66.4 30.624l0.096 0.128 8.448 0.384c1.696 0.256 3.648 0.384 5.632 0.384 10.912 0 20.864-4.224 28.256-11.136l0.096-0.096c7.968-9.632 13.504-21.536 15.584-34.624l0.064-0.416c1.76-16.16 7.616-30.72 16.544-42.88l-0.16 0.256c13.312-11.392 22.56-27.2 25.376-45.152l0.064-0.416 0.128 0.288v-0.704l-0.128 0.48c-0.608-10.464-7.392-15.84-19.904-23.808-37.888-15.904-70.432-37.056-98.464-62.976l0.224 0.192c-19.456-25.344-48.032-42.848-80.736-47.552l-0.672-0.064c-2.368-0.32-5.12-0.512-7.904-0.512-24.576 0-45.696 14.848-54.912 36.032l-0.16 0.384-0.192 0.128c-2.976 9.152-4.672 19.68-4.672 30.592 0 13.312 2.528 26.016 7.168 37.696l-0.256-0.704c7.488 21.376 13.92 46.912 18.176 73.216l0.352 2.656c0.512 25.984 3.328 50.976 8.256 75.2l-0.448-2.656c2.72 16.576 12.192 30.528 25.408 39.2l0.224 0.128 1.792 0.864zM601.6 635.456c19.2-68.704 42.848-128.064 71.904-184.224l-2.528 5.344c19.616-34.88 34.88-75.36 43.616-118.24l0.448-2.688c0.288 0 0.64 0 0.992 0 6.944 0 13.664-0.928 20.064-2.688l-0.544 0.128c3.52 12.64 5.536 27.136 5.536 42.112 0 45.632-18.784 86.912-49.056 116.448l-0.032 0.032c-8.8 8-9.28 13.408-4.928 13.408 31.072-29.12 54.048-66.496 65.44-108.608l0.384-1.632c2.848-10.528 4.48-22.624 4.48-35.104 0-11.232-1.312-22.176-3.808-32.64l0.192 0.96c2.368-1.216 5.12-2.144 8.032-2.656l0.192-0.032c41.28-21.344 56.512-37.504 49.184-61.472v1.728c-2.4 0.128-4.8 0-7.2 0h-0.64c6.048 18.688-7.264 32.992-42.592 48.96-36.576 16-65.824 13.44-70.784-18.592-0.352-1.568-0.608-3.392-0.704-5.28v-0.096c-2.336-0.96-5.12-1.856-8-2.496l-0.352-0.064c-16.256-10.752-27.84-27.488-31.648-47.008l-0.064-0.448c-4.736-22.24-7.712-48-8.192-74.336v-0.512c-2.912-20.384-7.36-38.624-13.376-56.096l0.64 2.112c-31.456-25.728-72.032-41.28-116.288-41.28-36.16 0-69.888 10.4-98.336 28.384l0.768-0.448c-4.672 8.096-10.016 15.104-16.096 21.344l0.032-0.032c-3.104 5.12-6.752 9.504-10.944 13.28l-0.064 0.032c6.624 0 13.024 0.992 19.072 2.816l-0.48-0.128c5.76 2.72 10.176 7.424 12.512 13.184l0.064 0.16c0.576 2.976 0.928 6.368 0.928 9.856 0 14.24-5.6 27.136-14.752 36.672l0.032-0.032c-19.808 24.352-43.488 44.64-70.272 60.16l-1.216 0.64c-21.472 12.416-37.728 31.84-45.76 55.104l-0.224 0.704c-2.976 10.176-4.704 21.888-4.704 33.984 0 11.296 1.504 22.24 4.288 32.672l-0.192-0.864c12.064 42.048 29.472 78.752 51.84 111.872l-0.896-1.376c4.288 2.592 1.472-5.408-16.32-38.944-15.168-22.816-24.224-50.88-24.224-81.056 0-26.88 7.168-52.064 19.712-73.792l-0.384 0.704c1.664 41.888 11.040 81.184 26.688 117.088l-0.8-2.080c33.76 60.864 59.328 131.552 72.8 206.464l0.64 4.192c1.92-1.44 8.672-5.408 11.552-8.064 8.704-5.312 15.2-13.312 23.584-18.592 8.544-8.32 20.256-13.44 33.12-13.44 0.672 0 1.344 0 2.016 0.032h-0.096c1.568-0.128 3.008-0.256 4.384-0.256 14.688 0.288 28.384 4.224 40.288 10.944l-0.416-0.224c11.584 5.344 20.8 13.344 29.6 16h0.192c17.12 4.64 31.456 14.528 41.6 27.808l0.128 0.192zM489.632 721.12c0.096 0 0.192 0 0.288 0 18.208 0 35.008-5.984 48.544-16.096l-0.224 0.16c12.096-7.488 26.048-13.856 40.8-18.368l1.28-0.32h0.128c7.872-3.52 14.368-8.992 19.008-15.808l0.096-0.16v5.248c1.472-2.944 2.368-6.432 2.368-10.112 0-3.136-0.64-6.112-1.76-8.832l0.064 0.16c-9.216-16.224-24.16-28.288-42.016-33.536l-0.512-0.128v-0.064c-10.72-5.408-20.032-13.312-30.976-18.592-11.2-6.72-24.672-10.688-39.104-10.688-0.48 0-0.96 0-1.44 0h0.064c-0.704-0.032-1.536-0.064-2.368-0.064-5.568 0-10.944 0.992-15.872 2.848l0.32-0.096c-5.088 2.784-9.28 5.408-13.344 8.224l0.448-0.32c-7.264 6.368-15.264 12.48-23.648 18.080l-0.832 0.512v0.192h-0.192c-12 6.368-21.44 16.128-27.264 28.032l-0.16 0.384c-0.864 2.144-1.344 4.64-1.344 7.232 0 6.976 3.584 13.12 8.992 16.704l0.064 0.032c8.96 5.408 15.2 10.848 19.328 13.44 4.16 2.944 5.728 4.064 7.040 5.248h0.064v0.128c8.576 10.848 19.936 19.168 33.024 23.872l0.512 0.16c5.568 1.6 11.968 2.528 18.592 2.592h0.032zM434.848 789.344h1.44c6.016-0.128 11.552-2.144 16.032-5.44l-0.064 0.064c5.728-5.088 10.4-11.264 13.6-18.24l0.128-0.352c3.616-7.84 5.856-16.96 6.112-26.56v-0.256c0.128-1.472 0.192-3.168 0.192-4.864 0-2.016-0.096-4.032-0.288-6.016l0.032 0.256v-3.2c-1.184-0.288-2.24-0.704-3.328-0.96-6.112-2.528-11.264-5.216-16.16-8.256l0.448 0.256c0.256 1.76 0.384 3.776 0.384 5.824 0 1.696-0.096 3.392-0.288 5.056l0.032-0.192v0.608c-0.576 4.928-1.728 9.44-3.424 13.696l0.128-0.352c-1.312 4.224-3.616 7.808-6.624 10.656v0c-1.76 1.6-4.096 2.592-6.688 2.592-0.224 0-0.448 0-0.672-0.032h-0.8c-3.296-0.352-6.048-2.4-7.424-5.216l-0.032-0.064c-2.464-2.976-4.16-6.656-4.8-10.688v-0.128c-0.736-2.752-1.12-5.92-1.12-9.184 0-1.408 0.064-2.816 0.224-4.192v0.16-0.608c0.512-4.928 1.664-9.472 3.328-13.696l-0.128 0.352c1.344-4.224 3.616-7.84 6.624-10.72v0c0.384-0.384 0.832-0.704 1.344-0.96h0.032c-2.656-1.696-4.96-3.488-7.072-5.472l0.032 0.032c-1.44-1.28-3.2-2.24-5.152-2.688l-0.096-0.032c-3.936 4.704-7.584 9.984-10.72 15.552l-0.256 0.512c-3.616 7.84-5.856 16.928-6.208 26.56v0.128c-0.128 1.536-0.192 3.328-0.192 5.152 0 7.712 1.248 15.136 3.52 22.080l-0.128-0.512c2.368 8.256 6.24 15.392 11.392 21.472l-0.064-0.096c4.064 4.8 10.016 7.84 16.704 8h0.032zM553.312 791.712h0.512c0.032 0 0.064 0 0.128 0 8.8 0 16.864-2.976 23.328-7.968l-0.096 0.064c7.328-5.664 13.216-12.8 17.344-20.96l0.16-0.352c3.872-8.512 6.272-18.4 6.624-28.832v-0.128c0 0.8 0.224 1.6 0.224 2.4v-4.192l-0.16 0.832-0.16 0.96c-0.096-10.24-2.272-19.904-6.176-28.704l0.192 0.448c-1.984-5.216-4.864-9.696-8.512-13.408v0c-0.96 0.576-2.144 1.12-3.328 1.6l-0.192 0.064c-4.32 1.344-8.096 3.168-11.52 5.408l0.16-0.096c-2.464 1.024-5.408 1.92-8.448 2.592l-0.352 0.064c2.592 2.432 4.992 5.024 7.2 7.776l0.128 0.16c2.016 4.736 3.264 10.208 3.52 15.968v0.896c0 0.256 0 0.512 0 0.8 0 5.44-0.896 10.656-2.56 15.52l0.096-0.352c-2.016 5.088-4.48 9.472-7.424 13.472l0.128-0.16c-2.784 2.816-6.464 4.736-10.592 5.28h-0.736c-0.032 0-0.096 0-0.128 0-4.224 0-8-2.080-10.304-5.248l-0.032-0.032c-3.712-3.616-6.528-8.096-8.128-13.12l-0.064-0.224c-2.016-4.704-3.328-10.176-3.584-15.872v-0.864c0.064-3.84 0.352-7.552 0.864-11.168l-0.064 0.48c-7.712 2.688-17.504 5.408-24.288 8.064-0.384 2.336-0.64 5.088-0.704 7.904v0.896c-0.032 0.64-0.032 1.376-0.032 2.112 0 10.368 2.208 20.192 6.208 29.056l-0.192-0.448c3.392 8.928 9.376 16.256 17.024 21.216l0.16 0.096c6.528 4.992 14.784 8 23.744 8v0zM532.16 927.872c-6.208 0-12.608-0.32-19.2-0.832-168.992-13.312-124.16-192.224-126.752-251.84-1.6-45.632-17.088-87.328-42.4-121.344l0.416 0.576c-45.024-51.264-81.76-111.168-107.232-176.736l-1.376-4.064c-8.256-21.92-13.056-47.232-13.056-73.664 0-9.12 0.576-18.112 1.664-26.912l-0.096 1.056c-1.792-1.472-3.296-3.264-4.352-5.312l-0.032-0.096c-10.4-10.72-17.984-24-26.528-33.536-9.056-6.944-19.68-12.416-31.2-15.808l-0.672-0.16c-14.848-4.448-26.944-14.144-34.4-26.912l-0.16-0.288c-3.328-6.784-5.28-14.752-5.28-23.2 0-0.32 0-0.608 0-0.928v0.032c0.064-7.616 0.832-15.008 2.336-22.176l-0.128 0.736c1.792-7.008 2.816-15.072 2.816-23.36 0-5.44-0.448-10.784-1.312-16l0.064 0.576c-5.344-10.016-8.448-21.92-8.448-34.56 0-8.896 1.536-17.408 4.384-25.312l-0.16 0.512c8.736-12.416 21.952-21.184 37.248-23.968l0.352-0.064c40.768-3.424 78.432-11.936 113.952-24.96l-3.008 0.96c22.336-13.28 49.248-21.12 77.952-21.12 9.408 0 18.624 0.832 27.584 2.464l-0.928-0.128c21.344 4.832 38.752 18.752 48.128 37.408l0.192 0.416c23.488 0.128 49.184 10.752 90.368 13.344 27.936 2.304 62.944-10.688 103.040-8 1.184-5.088 2.752-9.536 4.736-13.728l-0.192 0.416 0.128-0.128c12.288-25.728 38.080-43.2 67.968-43.2 2.592 0 5.152 0.128 7.68 0.384l-0.32-0.032c36.832 5.44 68.448 24.576 90.016 51.936l0.224 0.288c26.976 24.576 58.464 44.832 92.96 59.296l2.144 0.8c13.824 6.112 23.744 18.72 25.92 33.888l0.032 0.224c-1.888 22.208-12.544 41.568-28.416 54.912l-0.128 0.096v3.872l-0.128 0.128c-6.848 10.56-11.648 23.104-13.472 36.544l-0.064 0.48c-1.696 16.416-8.896 30.912-19.68 41.824v0h-0.128c-2.368 2.144-4.928 2.688-7.52 5.408-2.112 1.504-4.736 2.432-7.584 2.56h-0.032c6.24 19.264 9.856 41.408 9.856 64.416 0 30.080-6.176 58.72-17.312 84.704l0.544-1.408c-22.528 53.504-51.808 99.552-87.424 139.808l0.448-0.544c-35.36 34.624-58.496 81.632-62.336 133.984l-0.032 0.672c1.056 86.048 9.44 245.248-141.728 245.472z" />
<glyph unicode="&#xe901;" glyph-name="share" d="M768 917.333c-94.255 0-170.667-76.41-170.667-170.667 0-8.293 0.593-16.448 1.737-24.424l-238.626-139.256c-28.866 22.367-65.1 35.68-104.444 35.68-94.257 0-170.667-76.41-170.667-170.667 0-94.255 76.41-170.667 170.667-170.667 39.351 0 75.591 13.316 104.46 35.691l238.64-139.059c-1.165-8.043-1.766-16.265-1.766-24.631 0-94.255 76.412-170.667 170.667-170.667s170.667 76.412 170.667 170.667c0 94.255-76.412 170.667-170.667 170.667-39.266 0-75.435-13.261-104.273-35.55l-238.791 139.149c1.141 7.97 1.731 16.115 1.731 24.401 0 8.29-0.591 16.444-1.734 24.418l238.628 139.259c28.864-22.365 65.097-35.677 104.439-35.677 94.255 0 170.667 76.41 170.667 170.667s-76.412 170.667-170.667 170.667z" />
<glyph unicode="&#xe902;" glyph-name="song" d="M413.167 830.083h94.5v-31.583c236.417-54.167 263.417-167.667 126.333-346.583 14.583 177.5-3.333 215.583-126.333 223.833v-448.833c0.25-2.417 0.333-4.75 0.333-7.167 0-58.333-61.25-116.167-136.667-129.25-75.5-13.083-136.667 23.667-136.667 82 0 79.583 109.333 148.667 178.583 124.333l-0.083 533.25zM602.583 66h-1.333c0 10.75-4 20.083-12 28.167-8 8-17.417 12-28.167 12v1.333c10.75 0 20.083 4 28.167 12 8 8.083 12 17.417 12 28.083h1.333c0-10.75 4-20.083 12-28.083s17.417-12 28.167-12v-1.333c-10.75 0-20.083-4-28.167-12-8-8-12-17.417-12-28.167v0 0zM771.083 208.333l-3.333 0.25c2 26.833-6.25 51.083-24.75 72.667s-41.167 33.417-68.083 35.417l0.25 3.333c26.833-2.083 51.083 6.25 72.667 24.75 21.583 18.583 33.417 41.25 35.417 68l3.333-0.25c-2-26.833 6.25-51.083 24.75-72.667s41.167-33.417 68.083-35.417l-0.25-3.333c-26.833 2.083-51.083-6.25-72.667-24.75s-33.333-41.167-35.417-68v0 0zM911.083 472.833l-4.167-0.5c-4.333 34.417-20.917 62.917-49.917 85.5-28.917 22.583-60.667 31.667-95.167 27.417l-0.5 4.167c34.417 4.25 62.917 20.917 85.5 49.917s31.667 60.75 27.417 95.083l4.167 0.5c4.333-34.417 20.917-62.917 49.917-85.5s60.667-31.667 95.167-27.417l0.5-4.167c-34.417-4.333-62.917-20.917-85.5-49.917-22.583-28.917-31.667-60.667-27.417-95.083v0 0zM153.75 379.833c-19.167 0-34.75 15.583-34.75 34.75s15.583 34.75 34.75 34.75h138.583c19.167 0 34.75-15.583 34.75-34.75s-15.583-34.75-34.75-34.75h-138.583zM88.083 548.5c-19.167 0-34.75 15.583-34.75 34.75s15.583 34.75 34.75 34.75h204.333c19.167 0 34.75-15.583 34.75-34.75s-15.583-34.75-34.75-34.75h-204.333zM34.75 717.167c-19.167 0-34.75 15.583-34.75 34.833 0 19.167 15.583 34.75 34.75 34.75h257.667c19.167 0 34.75-15.583 34.75-34.75s-15.583-34.75-34.75-34.75l-257.667-0.083z" />
<glyph unicode="&#xe903;" glyph-name="stats" d="M853.333 874.667h-682.667c-47.128 0-85.333-38.205-85.333-85.333v0-682.667c0-47.128 38.205-85.333 85.333-85.333v0h682.667c47.128 0 85.333 38.205 85.333 85.333v0 682.667c0 47.128-38.205 85.333-85.333 85.333v0zM384 234.667c0-23.564-19.103-42.667-42.667-42.667s-42.667 19.103-42.667 42.667v0 85.333c0 23.564 19.103 42.667 42.667 42.667s42.667-19.103 42.667-42.667v0zM554.667 234.667c0-23.564-19.103-42.667-42.667-42.667s-42.667 19.103-42.667 42.667v0 256c0 23.564 19.103 42.667 42.667 42.667s42.667-19.103 42.667-42.667v0zM725.333 234.667c0-23.564-19.103-42.667-42.667-42.667s-42.667 19.103-42.667 42.667v0 426.667c0 23.564 19.103 42.667 42.667 42.667s42.667-19.103 42.667-42.667v0z" />
<glyph unicode="&#xe904;" glyph-name="blog-writing" d="M842.146 516.562c-1.156-23.438-18.938-52.376-47.594-80.188v-366.5c-0.032-9.438-3.75-17.438-10.032-23.688-6.312-6.126-14.5-9.75-24.126-9.812h-597.278c-9.562 0.062-17.782 3.688-24.094 9.812-6.282 6.25-9.968 14.25-10 23.688v585.688c0.032 9.406 3.718 17.438 10 23.688 6.312 6.126 14.532 9.75 24.094 9.812h317.218c25.656 33.688 55.562 68.188 89.438 99.812 0.156 0.188 0.282 0.376 0.438 0.562h-407.094c-37.5 0.032-71.968-15.062-96.5-39.188-24.656-24.126-40.032-57.876-40-94.688v-585.688c-0.032-36.812 15.344-70.626 40-94.688 24.53-24.122 59-39.184 96.5-39.184h597.282c37.562 0 72.032 15.062 96.562 39.188 24.594 24.062 40 57.876 39.968 94.688v483.186c0 0-0.25 0.312-0.656 0.626-15.532-13.314-33.626-26-54.126-37.126zM996.116 960c0 0-31.376-46.876-236.312-116.218-208.97-70.72-337.596-358.408-337.596-358.408-30.968-58.938-153.376-303.812-153.376-303.812-33.718-63.25 28.062-100.626 64.312-35.312 69.468 125.376 114.312 239.938 219.938 243.188 154.094 4.75 259.468 139.312 226.312 133.062-43.626-19-139.812-1.438-83.156 7.312 136 10.906 219.812 113.126 192.5 120.062-48.218-18.562-93.188-0.938-102 4.376 240.034 29.188 209.378 305.75 209.378 305.75z" />
<glyph unicode="&#xe905;" glyph-name="home" d="M767.008 556.992l116-106.016c14.016-12.992 10.016-23.008-8.992-23.008h-87.008v-276.992c0-19.008-16-36-35.008-36h-151.008v194.016c0 19.008-16.992 36-36 36h-95.008c-19.008 0-36-16.992-36-36v-194.016h-151.008c-19.008 0-36 16.992-36 36v276.992h-86.016c-19.008 0-23.008 10.016-8.992 23.008l339.008 308c14.016 12.992 38.016 12.992 52.992 0l76.992-68.992v55.008c0 19.008 16.992 36 36 36h75.008c19.008 0 35.008-16.992 35.008-36v-188z" />
<glyph unicode="&#xe906;" glyph-name="search-alt" d="M908.497-8.836c16.661-16.661 43.678-16.661 60.339 0s16.661 43.678 0 60.339l-60.339-60.339zM725.333 533.333c0-164.949-133.717-298.667-298.667-298.667v-85.333c212.079 0 384 171.921 384 384h-85.333zM426.667 234.667c-164.949 0-298.667 133.717-298.667 298.667h-85.333c0-212.079 171.923-384 384-384v85.333zM128 533.333c0 164.949 133.718 298.667 298.667 298.667v85.333c-212.077 0-384-171.923-384-384h85.333zM426.667 832c164.949 0 298.667-133.718 298.667-298.667h85.333c0 212.077-171.921 384-384 384v-85.333zM631.164 268.497l277.333-277.333 60.339 60.339-277.333 277.333-60.339-60.339z" />
<glyph unicode="&#xe907;" glyph-name="edit" d="M690.773 874.667h-357.547c-155.307 0-247.893-92.587-247.893-247.893v-357.12c0-155.733 92.587-248.32 247.893-248.32h357.12c155.307 0 247.893 92.587 247.893 247.893v357.547c0.427 155.307-92.16 247.893-247.467 247.893zM467.2 212.907c-12.373-12.373-35.84-24.32-52.907-26.88l-104.96-14.933c-3.84-0.427-7.68-0.853-11.52-0.853-17.493 0-33.707 5.973-45.227 17.493-14.080 14.080-20.053 34.56-16.64 57.173l14.933 104.96c2.56 17.493 14.080 40.533 26.88 52.907l190.293 190.293c3.413-8.96 6.827-17.92 11.52-28.16 4.267-8.96 8.96-18.347 14.080-26.88 4.267-7.253 8.96-14.080 12.8-19.2 4.693-7.253 10.24-14.080 13.653-17.92 2.133-2.987 3.84-5.12 4.693-5.973 10.667-12.8 23.040-24.747 33.707-33.707 2.987-2.987 4.693-4.693 5.547-5.12 6.4-5.12 12.8-10.24 18.347-14.080 6.827-5.12 13.653-9.813 20.907-13.653 8.533-5.12 17.92-9.813 27.307-14.507 9.813-4.267 18.773-8.107 27.733-11.093l-191.147-189.867zM741.12 486.827l-39.253-39.68c-2.56-2.56-5.973-3.84-9.387-3.84-1.28 0-2.987 0-3.84 0.427-86.613 24.747-155.733 93.867-180.48 180.48-1.28 4.693 0 9.813 3.413 12.8l39.68 39.68c64.853 64.853 126.72 63.573 190.293 0 32.427-32.427 48.213-63.573 48.213-96-0.427-30.72-16.213-61.44-48.64-93.867z" />
<glyph unicode="&#xe908;" glyph-name="file" d="M790.613 576l-235.947 235.947c-5.995 6.003-14.131 9.379-22.613 9.387h-190.72c-31.119 0-60.963-12.362-82.967-34.366s-34.366-51.848-34.366-82.967v-512c0-31.117 12.362-60.962 34.366-82.965 22.004-22.007 51.848-34.368 82.967-34.368h341.333c31.117 0 60.962 12.361 82.965 34.368 22.007 22.003 34.368 51.849 34.368 82.965v362.667c-0.337 8.038-3.686 15.655-9.387 21.333zM565.333 712.107l125.44-125.44h-125.44v125.44zM682.667 138.667h-341.333c-14.145 0-27.71 5.619-37.712 15.62s-15.621 23.569-15.621 37.713v512c0 14.145 5.619 27.71 15.621 37.712s23.567 15.621 37.712 15.621h160v-202.667c0.111-8.453 3.516-16.528 9.493-22.507s14.054-9.382 22.507-9.493h202.667v-330.667c0-14.144-5.619-27.712-15.62-37.713s-23.569-15.62-37.713-15.62z" />
<glyph unicode="&#xe909;" glyph-name="desktop" d="M85.333 874.667h853.333c47.13 0 85.333-38.205 85.333-85.333v-554.667c0-47.13-38.204-85.333-85.333-85.333h-853.333c-47.128 0-85.333 38.204-85.333 85.333v554.667c0 47.128 38.205 85.333 85.333 85.333zM682.667 106.667c23.565 0 42.667-19.102 42.667-42.667s-19.102-42.667-42.667-42.667h-341.333c-23.564 0-42.667 19.102-42.667 42.667s19.103 42.667 42.667 42.667h341.333z" />
<glyph unicode="&#xe90a;" glyph-name="desktop-alt" d="M921.636 294.4c0-28.262-22.93-51.2-51.182-51.2h-716.549c-28.253 0-51.182 22.938-51.182 51.2v512c0 28.262 22.93 51.2 51.182 51.2h716.549c28.253 0 51.182-22.938 51.182-51.2v-512zM921.124 960h-819.118c-56.505 0-102.006-46.848-102.006-103.424l0.358-1.024v-614.4l-0.358 1.024c0-56.576 45.501-101.376 102.006-101.376h307.093c28.304 0 51.899-23.962 51.899-52.224v0.512c0-28.262-23.595-50.688-51.899-50.688h-153.546c-28.253 0-50.466-23.962-50.466-52.224v0.512c0-28.262 22.213-50.688 50.466-50.688h511.821c28.304 0 51.899 21.914 51.899 50.176v0.512c0 28.262-23.595 51.712-51.899 51.712h-153.546c-28.253 0-50.466 21.914-50.466 50.176v0.512c0 28.262 22.213 51.712 50.466 51.712h307.297l0.358-1.024c56.403 0 102.518 44.749 102.518 101.222v614.707c0 56.474-46.115 103.27-102.518 103.27l-0.358 1.024z" />
<glyph unicode="&#xe90b;" glyph-name="comments-alt" d="M573 539c-23.1 0-41-17.9-41-40s17.9-40 41-40c21.1 0 39 17.9 39 40s-17.9 40-39 40zM293 539c-23.1 0-41-17.9-41-40s17.9-40 41-40c21.1 0 39 17.9 39 40s-17.9 40-39 40zM894 615c-48.1 66-115.3 110.1-189 130v-0.1c-17.1 19-36.4 36.5-58 52.1-163.7 119-393.5 82.7-513-81-96.3-133-92.2-311.9 6-439l0.8-132.6c0-3.2 0.5-6.4 1.5-9.4 5.3-16.9 23.3-26.2 40.1-20.9l126.6 39.9c33.5-11.9 68.1-18.7 102.5-20.6l-0.5-0.4c89.1-64.9 205.9-84.4 313-49l127.1-41.4c3.2-1 6.5-1.6 9.9-1.6 17.7 0 32 14.3 32 32v134c88.1 119.6 90.4 284.9 1 408zM323 225l-12 5-99-31-1 104-8 9c-84.6 103.2-90.2 251.9-11 361 96.4 132.2 281.2 161.4 413 66 132.2-96.1 161.5-280.6 66-412-80.1-109.9-223.5-150.5-348-102zM828 242l-8-10 1-104-98 33-12-5c-56-20.8-115.7-22.5-171-7l-0.2 0.1c73.9 22.7 140.9 68.7 189.2 134.9 76.4 105.3 88.8 237.6 44.4 350.4l0.6-0.4c23-16.5 44.1-37.1 62-62 72.6-99.6 68.5-235.2-8-330zM433 539c-23.1 0-41-17.9-41-40s17.9-40 41-40c21.1 0 39 17.9 39 40s-17.9 40-39 40z" />
<glyph unicode="&#xe90c;" glyph-name="comment" d="M512 874.667c-235.641 0-426.667-191.025-426.667-426.667v0c-0.002-0.474-0.003-1.036-0.003-1.598 0-102.317 36.415-196.128 96.992-269.181l-0.563 0.698-85.333-85.333c-7.601-7.7-12.296-18.286-12.296-29.968 0-5.971 1.227-11.656 3.442-16.817l-0.106 0.278c6.929-14.753 21.662-24.784 38.738-24.784 0.631 0 1.259 0.014 1.884 0.041l-0.089-0.003h384c235.641 0 426.667 191.025 426.667 426.667s-191.025 426.667-426.667 426.667v0zM512 106.667h-281.173l39.68 39.68c7.668 7.712 12.407 18.343 12.407 30.080s-4.74 22.368-12.409 30.082l0.002-0.002c-61.849 61.783-100.108 147.17-100.108 241.493 0 188.513 152.82 341.333 341.333 341.333s341.333-152.82 341.333-341.333c0-188.419-152.667-341.181-341.051-341.333h-0.014z" />
<glyph unicode="&#xe90d;" glyph-name="comment-svgrepo-com-1" d="M810.667 533.333c70.694 0 128-57.306 128-128v-128c0-70.694-57.306-128-128-128v-41.225c0-45.218-52.74-69.922-87.475-40.973l-98.641 82.197h-112.55c-70.694 0-128 57.306-128 128v128c0 70.694 57.306 128 128 128h298.667zM682.667 789.333c70.694 0 128-57.308 128-128v-42.667h-341.333c-94.257 0-170.667-76.41-170.667-170.667v-170.667c0-44.565 17.082-85.146 45.057-115.541l-45.057-33.792c-35.159-26.368-85.333-1.284-85.333 42.667v64c-70.692 0-128 57.306-128 128v298.667c0 70.692 57.308 128 128 128h469.333z" />
<glyph unicode="&#xe90e;" glyph-name="comment-alt" d="M682.667 789.333c68.17 0 123.89-53.287 127.783-120.479l0.217-7.521v-85.333c68.17 0 123.89-53.285 127.783-120.479l0.217-7.521v-170.667c0-68.17-53.285-123.89-120.479-127.783l-7.521-0.217v-41.225c0-43.479-48.761-67.991-83.391-44.077l-4.084 3.104-98.641 82.197h-155.217c-32.744 0-62.618 12.297-85.255 32.524l-5.991 5.71-79.421-59.567c-33.753-25.313-81.343-3.209-85.097 37.485l-0.237 5.181v64c-68.168 0-123.89 53.285-127.783 120.479l-0.217 7.521v298.667c0 68.168 53.287 123.89 120.479 127.783l7.521 0.217h469.333zM810.667 490.667h-341.333c-23.565 0-42.667-19.102-42.667-42.667v-170.667c0-23.565 19.102-42.667 42.667-42.667h155.217c19.964 0 39.296-6.997 54.63-19.78l46.391-38.656c2.82 32.742 30.289 58.436 63.761 58.436h21.333c23.565 0 42.667 19.102 42.667 42.667v170.667c0 23.565-19.102 42.667-42.667 42.667zM682.667 704h-469.333c-23.564 0-42.667-19.103-42.667-42.667v-298.667c0-23.565 19.103-42.667 42.667-42.667h21.333c35.346 0 64-28.655 64-64v-21.333l43.080 32.311c-0.273 3.413-0.413 6.869-0.413 10.355v170.667c0 70.694 57.308 128 128 128h256v85.333c0 23.564-19.102 42.667-42.667 42.667z" />
<glyph unicode="&#xe90f;" glyph-name="arrow-up" d="M104.704 274.752c11.581-11.578 27.578-18.738 45.248-18.738s33.667 7.161 45.248 18.739l316.8 316.8 316.8-316.8c11.497-11.116 27.179-17.966 44.462-17.966 35.346 0 64 28.654 64 64 0 17.282-6.85 32.964-17.983 44.48l0.017-0.018-362.048 362.048c-11.581 11.578-27.578 18.738-45.248 18.738s-33.667-7.161-45.248-18.739l-362.048-362.048c-11.578-11.581-18.738-27.578-18.738-45.248s7.161-33.667 18.739-45.248v0z" />
<glyph unicode="&#xe910;" glyph-name="arrow-down" d="M104.704 621.248c11.581 11.578 27.578 18.738 45.248 18.738s33.667-7.161 45.248-18.739l316.8-316.8 316.8 316.8c11.497 11.116 27.179 17.966 44.462 17.966 35.346 0 64-28.654 64-64 0-17.282-6.85-32.964-17.983-44.48l0.017 0.018-362.048-362.048c-11.581-11.578-27.578-18.738-45.248-18.738s-33.667 7.161-45.248 18.739l-362.048 362.048c-11.578 11.581-18.738 27.578-18.738 45.248s7.161 33.667 18.739 45.248v0z" />
<glyph unicode="&#xe911;" glyph-name="arrow-left" d="M685.248 855.296c11.578-11.581 18.738-27.578 18.738-45.248s-7.161-33.667-18.739-45.248l-316.8-316.8 316.8-316.8c11.116-11.497 17.966-27.179 17.966-44.462 0-35.346-28.654-64-64-64-17.282 0-32.964 6.85-44.48 17.983l0.018-0.017-362.048 362.048c-11.578 11.581-18.738 27.578-18.738 45.248s7.161 33.667 18.739 45.248l362.048 362.048c11.581 11.578 27.578 18.738 45.248 18.738s33.667-7.161 45.248-18.739v0z" />
<glyph unicode="&#xe912;" glyph-name="arrow-right" d="M338.752 855.296c-11.578-11.581-18.738-27.578-18.738-45.248s7.161-33.667 18.739-45.248l316.8-316.8-316.8-316.8c-11.116-11.497-17.966-27.179-17.966-44.462 0-35.346 28.654-64 64-64 17.282 0 32.964 6.85 44.48 17.983l-0.018-0.017 362.048 362.048c11.578 11.581 18.738 27.578 18.738 45.248s-7.161 33.667-18.739 45.248l-362.048 362.048c-11.581 11.578-27.578 18.738-45.248 18.738s-33.667-7.161-45.248-18.739v0z" />
<glyph unicode="&#xe913;" glyph-name="heart-alt" d="M512 117.329c-8.482 0.009-16.619 3.383-22.613 9.387l-288.853 289.707c-39.089 39.881-60.983 93.495-60.983 149.335s21.894 109.455 60.983 149.333c39.607 39.603 93.323 61.851 149.333 61.851s109.725-22.248 149.333-61.851l12.8-11.093 11.947 11.947c19.584 19.797 42.91 35.501 68.621 46.195s53.295 16.167 81.139 16.098c27.819 0.125 55.381-5.28 81.092-15.901 25.707-10.621 49.050-26.245 68.668-45.966 39.087-39.878 60.983-93.493 60.983-149.333s-21.897-109.455-60.983-149.335l-288.853-289.707c-2.859-3.204-6.336-5.798-10.223-7.633-3.883-1.83-8.098-2.863-12.39-3.034zM350.294 714.664c-19.378 0.141-38.592-3.557-56.534-10.88s-34.255-18.127-48-31.787c-27.696-27.825-43.245-65.487-43.245-104.747s15.549-76.921 43.245-104.748l266.24-267.947 265.813 267.093c13.764 13.751 24.687 30.080 32.137 48.055 7.45 17.971 11.285 37.236 11.285 56.693s-3.836 38.722-11.285 56.695c-7.45 17.973-18.372 34.301-32.137 48.052-13.636 13.686-29.871 24.51-47.748 31.837s-37.039 11.008-56.358 10.829c-19.379 0.141-38.592-3.557-56.533-10.88s-34.257-18.127-48-31.787l-34.56-34.56c-6.106-5.792-14.199-9.021-22.613-9.021s-16.508 3.229-22.613 9.021l-34.56 34.56c-13.675 13.815-29.956 24.775-47.901 32.246s-37.195 11.303-56.632 11.274z" />
<glyph unicode="&#xe914;" glyph-name="qrcode" d="M528.213 794.453v-298.667h298.667v298.667h-298.667zM762.88 559.787h-170.667v170.667h170.667v-170.667zM165.547 495.787h298.667v298.667h-298.667v-298.667zM229.547 730.453h170.667v-170.667h-170.667v170.667zM165.547 133.12h298.667v298.667h-298.667v-298.667zM229.547 367.787h170.667v-170.667h-170.667v170.667zM602.88 431.787h-74.667v-74.667h74.667v74.667zM752.213 431.787h-74.667v-74.667h74.667v74.667zM677.547 357.12h-74.667v-74.667h74.667v74.667zM826.88 357.12h-74.667v-74.667h74.667v74.667zM602.88 282.453h-74.667v-74.667h74.667v74.667zM752.213 282.453h-74.667v-74.667h74.667v74.667zM677.547 207.787h-74.667v-74.667h74.667v74.667zM826.88 207.787h-74.667v-74.667h74.667v74.667z" />
<glyph unicode="&#xe915;" glyph-name="dislike" d="M220.14 882.571c-33.428-8.143-66.856-29.572-66.856-70.715 0-16.713 4.286-28.714 10.286-38.142 3.001-5.572 2.571-9.858-2.143-11.999-27.001-12.001-49.713-36.429-49.713-70.716 0-19.712 5.142-36.857 15-49.285 5.142-6.427 3.856-11.999-3.858-16.285-19.714-11.143-33-35.999-33-64.285 0-20.144 6.429-41.571 18.43-52.286 6.427-6 5.57-10.286-2.143-16.285-13.714-10.714-21.429-31.285-21.429-55.715 0-42 32.143-76.284 75.001-76.284h152.998c38.572 0 64.715-19.716 64.715-51.858 0-58.714-72.856-164.999-72.856-242.143 0-39.856 26.141-63.428 59.999-63.428 30.857 0 46.285 21.427 63 54 63.857 126 150.429 227.143 216.428 314.571 55.715 74.143 82.715 137.143 84.001 239.572 2.143 158.572-125.572 279-327.428 280.285l-59.143 0.858c-56.572 0.428-97.287-3.858-121.287-9.858zM939.288 614.715c0 128.571-80.146 236.142-187.719 236.142h-76.284c77.142-56.998 113.143-142.713 111.428-240.428-1.713-108.857-44.142-186.428-81.858-233.571h63.002c96.856 0 171.432 104.143 171.432 237.857z" />
<glyph unicode="&#xe916;" glyph-name="like" d="M803.427 13.429c33.428 7.713 67.286 29.572 67.286 70.715 0 16.713-4.714 28.284-10.286 38.142-3.429 5.572-3.001 9.858 2.143 11.999 26.995 12.001 49.289 36.001 49.289 70.715 0 19.286-5.144 36.857-15 49.287-4.723 6.427-3.862 11.569 3.853 16.283 20.144 11.145 33.002 36.001 33.002 64.287 0 19.714-6.433 41.571-18.432 52.286-6.426 6-5.144 10.286 2.141 16.285 14.149 10.714 21.864 31.285 21.864 55.715 0 42-32.572 75.856-75.432 75.856h-153c-38.572 0-64.715 20.144-64.715 51.856 0 59.143 73.285 165.429 73.285 242.143 0 39.857-26.141 63.857-59.999 63.857-30.857 0-46.715-21.427-63.429-54-63.857-126-150.427-227.571-216-314.571-55.713-74.573-83.141-137.143-84.427-240.002-2.145-158.142 126-278.57 327.428-280.285l59.571-0.428c56.143-0.428 97.285 3.858 120.858 9.858zM84.712 281.285c0-128.571 79.715-236.144 187.286-236.144h76.714c-77.572 56.572-113.143 142.287-111.429 240.43 1.285 108.857 43.716 186.428 81.43 233.571h-63c-96.43 0-171.001-104.571-171.001-237.857z" />
<glyph unicode="&#xe917;" glyph-name="dislike-alt" d="M414.285 930.999h-59.573c-53.57 0-99.427-2.999-130.286-10.714-59.141-14.57-96-55.713-96-107.999 0-11.143 1.715-21.001 4.714-30.857-29.57-21.857-46.285-54.429-46.285-90.428 0-17.143 3.429-34.288 9.858-48.858-19.714-20.144-31.715-49.715-31.715-80.572 0-20.57 5.142-41.571 14.142-57.428-12.429-17.143-19.286-41.143-19.286-66.858 0-64.285 49.715-114.856 113.573-114.856h161.999c10.715 0 17.143-4.286 17.143-13.286 0-46.713-72.856-155.141-72.856-242.143 0-59.141 41.143-101.998 98.143-101.998 42.428 0 70.285 21.857 98.141 74.999 52.286 100.286 114 188.999 216 313.285h81.43c105.86 0 190.718 119.572 190.718 266.143 0 144-93.433 264-207.003 264h-141.429c-56.572 29.572-125.144 47.57-201.428 47.57zM354.284 866.286l59.571-0.428c179.571-1.715 301.286-103.287 301.286-249 0-92.571-20.571-151.715-78.857-229.714-64.715-86.144-153.858-189.429-218.143-317.572-17.143-33.858-26.143-39.857-40.285-39.857-21.001 0-33.43 13.286-33.43 37.285 0 69.859 72.858 174.859 72.858 242.143 0 48.43-40.285 78.001-91.286 78.001h-152.571c-28.286 0-48.858 21.429-48.858 50.141 0 20.144 6.429 33.43 23.142 49.715 4.714 4.286 6.429 8.572 6.429 13.286 0 3.856-1.285 7.285-4.286 11.141-14.142 20.144-20.144 33.43-20.144 50.143 0 20.144 9.858 37.714 29.144 52.286 8.572 6 12.857 12.857 12.857 20.144 0 2.571-0.858 5.572-2.571 8.571-12.429 23.572-17.571 33-17.571 48.43 0 23.142 14.57 40.713 45.427 56.571 6.429 3.429 10.286 8.572 10.286 15 0 2.573-0.856 5.144-2.141 8.143-10.715 26.143-12.001 30.429-12.001 41.573 0 20.999 15.429 37.285 46.715 44.999 25.285 6.857 65.571 9.428 114.428 9zM757.142 818.714c75.856 0 142.288-90.856 142.288-199.285 0-111-59.575-201.428-126.003-201.428h-39.429c32.143 60.427 45.857 123.001 45.857 197.57 0 80.572-29.142 150.429-80.571 203.143z" />
<glyph unicode="&#xe918;" glyph-name="hand-thumbsup-svgrepo-com" d="M609.712-35.001h59.571c53.572 0 99.858 3.429 130.288 10.715 59.143 14.57 95.998 55.713 95.998 108.429 0 10.714-1.712 20.999-4.712 30.857 29.57 21.427 46.281 54.427 46.281 89.999 0 17.573-3.423 34.715-9.856 48.858 19.712 20.144 31.72 49.715 31.72 81 0 20.144-5.144 41.571-14.149 57 12.429 17.571 19.293 41.143 19.293 67.286 0 63.857-49.715 114.428-113.576 114.428h-161.999c-10.288 0-17.143 4.714-17.143 13.285 0 46.715 72.856 155.143 72.856 242.143 0 59.143-41.143 102.001-98.143 102.001-41.999 0-70.285-21.859-98.141-75.001-52.286-100.286-114-189.001-216-313.285h-81.43c-105.856 0-190.715-119.572-190.715-265.715 0-144.428 93.429-264.428 207-264.428h141.429c56.572-29.572 125.144-47.572 201.428-47.572zM669.712 29.714l-59.571 0.858c-179.571 1.285-301.286 102.857-301.286 248.571 0 92.571 20.571 151.715 78.857 229.714 64.715 86.142 153.858 189.429 218.143 317.572 17.143 34.286 26.143 39.857 40.285 39.857 21.001 0 33.43-13.286 33.43-37.286 0-69.429-72.858-174.857-72.858-242.143 0-48.428 40.285-78 91.286-78h152.571c28.288 0 48.861-21.427 48.861-49.713 0-20.571-6.433-33.858-23.144-50.143-4.284-4.286-6.435-8.572-6.435-13.286 0-3.429 1.291-7.285 4.292-10.714 14.14-20.571 20.144-33.43 20.144-50.143 0-20.571-9.856-37.714-29.147-52.714-8.141-6-12.427-12.859-12.427-20.144 0-2.571 0.43-5.572 2.143-8.571 12.425-23.572 17.569-33 17.569-48.43 0-23.142-14.568-40.713-45.425-56.571-6.429-3.429-10.286-8.572-10.286-15 0-2.573 0.858-5.144 2.141-8.143 10.715-26.143 12.001-30.429 12.001-41.143 0-21.001-15.429-37.716-46.715-45.429-25.285-6.429-65.571-9.428-114.428-9zM266.854 77.286c-75.856 0-142.285 91.284-142.285 199.713 0 110.572 59.571 201 126 201h39.429c-32.144-59.999-45.859-122.999-45.859-197.572 0-80.571 29.144-150 81-203.141z" />
<glyph unicode="&#xe919;" glyph-name="hand" d="M668.896 191.552l94.688 127.488 111.2 106.24c0 0-37.056 44.192-82.88 44.192-20.576 0-39.424-5.888-56.64-17.664-17.12-11.744-32.736-29.376-46.816-52.96-19.68-6.88-35.008-13.44-46.016-19.68-2.432 24.512-5.376 42.656-8.8 54.4l63.872 247.936c15.136 59.776 18.752 89.984-17.248 105.984s-72.8-28.128-91.744-84.384l-60.576-191.456 1.824 246.208c0 60.448-19.072 90.656-57.216 90.656-38.528 0-57.76-26.784-57.76-80.32v-246.144l-61.952 215.616c-15.36 38.144-42.4 75.712-78.4 63.712s-34.304-71.232-24.32-109.152l55.2-210.208-89.024 147.040c-27.232 47.2-74.208 56.32-84.832 45.312-16.928-17.568-28.256-54.944 2.464-108.608l98.208-170.976 87.68-303.744v-59.040h256v76.128c29.728 20.384 55.424 48.192 93.088 83.424v0z" />
<glyph unicode="&#xe91a;" glyph-name="sort-alt" d="M448 608.003c-8.107 0-16.213 2.987-22.613 9.387l-84.053 84.053-84.053-84.053c-12.373-12.373-32.853-12.373-45.227 0s-12.373 32.853 0 45.227l106.667 106.667c12.373 12.373 32.853 12.373 45.227 0l106.667-106.667c12.373-12.373 12.373-32.853 0-45.227-6.4-6.4-14.507-9.387-22.613-9.387zM341.333 117.333c-17.493 0-32 14.507-32 32v597.333c0 17.493 14.507 32 32 32s32-14.507 32-32v-597.333c0-17.493-14.507-32-32-32zM682.667 117.338c-8.107 0-16.213 2.987-22.613 9.387l-106.667 106.667c-12.373 12.373-12.373 32.853 0 45.227s32.853 12.373 45.227 0l84.053-84.053 84.053 84.053c12.373 12.373 32.853 12.373 45.227 0s12.373-32.853 0-45.227l-106.667-106.667c-6.4-6.4-14.507-9.387-22.613-9.387zM682.667 117.333c-17.493 0-32 14.507-32 32v597.333c0 17.493 14.507 32 32 32s32-14.507 32-32v-597.333c0-17.493-14.507-32-32-32z" />
<glyph unicode="&#xe91b;" glyph-name="hand-alt" d="M992 688c0 0-80.96-170.656-102.88-257.984-28.672-114.24 4.16-200.576-37.504-311.36-72-129.92-76.864-150.944-339.616-150.656-96.288 0.096-372.032 73.504-372.032 73.504-38.016 9.76-107.936 4-107.936 46.496s49.728 73.472 93.952 73.6l174.048-15.296c42.304 2.656 86.56 27.392 87.904 82.72-0.704 81.856-8.8 144.704-50.336 211.2l-161.344 251.744c-9.632 20.032-11.936 54.208 15.968 69.472s59.584-7.424 70.4-27.168l180.192-245.12c19.264-17.888 53.472-21.344 50.56 16.768l-79.584 364.832c-4.96 25.92 8.192 57.312 38.208 57.312 39.392 0 63.584-15.040 62.816-38.816l87.488-359.968c6.848-17.504 31.104-15.2 37.632 0.992l24.928 350.048c1.28 11.168 15.84 30.624 43.808 26.592s44.064-34.016 41.12-45.568l-8.096-345.888c5.664-30.656 29.76-35.136 48.544-18.016l122.464 218.976c7.424 18.368 36.576 22.176 53.44 14.912 15.712-10.24 25.92-23.936 25.92-43.232v0z" />
<glyph unicode="&#xe91c;" glyph-name="sort-amount-down" d="M277.333 117.338c-8.107 0-16.213 2.987-22.613 9.387l-106.667 106.667c-12.373 12.373-12.373 32.853 0 45.227s32.853 12.373 45.227 0l84.053-84.053 84.053 84.053c12.373 12.373 32.853 12.373 45.227 0s12.373-32.853 0-45.227l-106.667-106.667c-6.4-6.4-14.507-9.387-22.613-9.387zM277.333 117.333c-17.493 0-32 14.507-32 32v597.333c0 17.493 14.507 32 32 32s32-14.507 32-32v-597.333c0-17.493-14.507-32-32-32zM853.333 608h-341.333c-17.493 0-32 14.507-32 32s14.507 32 32 32h341.333c17.493 0 32-14.507 32-32s-14.507-32-32-32zM682.667 352h-170.667c-17.493 0-32 14.507-32 32s14.507 32 32 32h170.667c17.493 0 32-14.507 32-32s-14.507-32-32-32zM597.333 224h-85.333c-17.493 0-32 14.507-32 32s14.507 32 32 32h85.333c17.493 0 32-14.507 32-32s-14.507-32-32-32zM768 480h-256c-17.493 0-32 14.507-32 32s14.507 32 32 32h256c17.493 0 32-14.507 32-32s-14.507-32-32-32z" />
<glyph unicode="&#xe91d;" glyph-name="android-alt" d="M648.4 874.4l11.2 16.8 11.2 16.4 24.8 37.2c3.2 4.4 2 10.8-2.8 13.6-4.4 3.2-10.8 2-13.6-2.8l-48.8-73.2c-36 14-75.6 21.6-118 21.6-42 0-82-7.6-118-21.6l-48.8 73.2c-3.2 4.4-9.2 5.6-13.6 2.8-4.4-3.2-5.6-9.2-2.8-13.6l24.8-37.2 11.2-16.4 11.2-16.8c-84-39.2-141.2-113.2-141.2-198.4h554.8c-0.4 85.2-57.2 159.2-141.6 198.4zM393.2 755.6c-16.4 0-29.6 13.2-29.6 29.6s13.2 29.6 29.6 29.6c16.4 0 29.6-13.2 29.6-29.6s-13.2-29.6-29.6-29.6zM630.8 755.6c-16.4 0-29.6 13.2-29.6 29.6s13.2 29.6 29.6 29.6c16.4 0 29.6-13.2 29.6-29.6 0.4-16.4-12.8-29.6-29.6-29.6zM238.8 636.8l-4.4-0.4v-436c0-34.8 28-62.8 62.8-62.8h45.2c-1.6-5.2-2.4-10.8-2.4-16.4v-125.6c0-32.8 26.8-59.6 59.6-59.6s59.6 26.8 59.6 59.6v125.6c0 5.6-0.8 11.2-2.4 16.4h110.4c-1.6-5.2-2.4-10.8-2.4-16.4v-125.6c0-32.8 26.8-59.6 59.6-59.6s59.6 26.8 59.6 59.6v125.6c0 5.6-0.8 11.2-2.4 16.4h45.2c34.8 0 62.8 28 62.8 62.8v436.4h-550.8zM135.6 636.4c-32.8 0-59.6-26.8-59.6-59.6v-254.4c0-32.8 26.8-59.6 59.6-59.6s59.6 26.8 59.6 59.6v254.4c-0.4 33.2-26.8 59.6-59.6 59.6zM888.8 636.4c-32.8 0-59.6-26.8-59.6-59.6v-254.4c0-32.8 26.8-59.6 59.6-59.6s59.6 26.8 59.6 59.6v254.4c-0.4 33.2-26.8 59.6-59.6 59.6z" />
<glyph unicode="&#xe91e;" glyph-name="sort-amount-down-alt" d="M277.333 117.338c-8.107 0-16.213 2.987-22.613 9.387l-106.667 106.667c-12.373 12.373-12.373 32.853 0 45.227s32.853 12.373 45.227 0l84.053-84.053 84.053 84.053c12.373 12.373 32.853 12.373 45.227 0s12.373-32.853 0-45.227l-106.667-106.667c-6.4-6.4-14.507-9.387-22.613-9.387zM277.333 117.333c-17.493 0-32 14.507-32 32v597.333c0 17.493 14.507 32 32 32s32-14.507 32-32v-597.333c0-17.493-14.507-32-32-32zM853.333 224h-341.333c-17.493 0-32 14.507-32 32s14.507 32 32 32h341.333c17.493 0 32-14.507 32-32s-14.507-32-32-32zM682.667 480h-170.667c-17.493 0-32 14.507-32 32s14.507 32 32 32h170.667c17.493 0 32-14.507 32-32s-14.507-32-32-32zM597.333 608h-85.333c-17.493 0-32 14.507-32 32s14.507 32 32 32h85.333c17.493 0 32-14.507 32-32s-14.507-32-32-32zM768 352h-256c-17.493 0-32 14.507-32 32s14.507 32 32 32h256c17.493 0 32-14.507 32-32s-14.507-32-32-32z" />
<glyph unicode="&#xe91f;" glyph-name="sort-amount-up" d="M384 608.003c-8.107 0-16.213 2.987-22.613 9.387l-84.053 84.053-84.053-84.053c-12.373-12.373-32.853-12.373-45.227 0s-12.373 32.853 0 45.227l106.667 106.667c12.373 12.373 32.853 12.373 45.227 0l106.667-106.667c12.373-12.373 12.373-32.853 0-45.227-6.4-6.4-14.507-9.387-22.613-9.387zM277.333 117.333c-17.493 0-32 14.507-32 32v597.333c0 17.493 14.507 32 32 32s32-14.507 32-32v-597.333c0-17.493-14.507-32-32-32zM853.333 608h-341.333c-17.493 0-32 14.507-32 32s14.507 32 32 32h341.333c17.493 0 32-14.507 32-32s-14.507-32-32-32zM682.667 352h-170.667c-17.493 0-32 14.507-32 32s14.507 32 32 32h170.667c17.493 0 32-14.507 32-32s-14.507-32-32-32zM597.333 224h-85.333c-17.493 0-32 14.507-32 32s14.507 32 32 32h85.333c17.493 0 32-14.507 32-32s-14.507-32-32-32zM768 480h-256c-17.493 0-32 14.507-32 32s14.507 32 32 32h256c17.493 0 32-14.507 32-32s-14.507-32-32-32z" />
<glyph unicode="&#xe920;" glyph-name="tag" d="M861.013 518.4l-278.613 278.613c-34.788 34.639-82.706 56.117-135.641 56.32h-190.759c-82.475 0-149.333-66.859-149.333-149.333v0-190.72c0-0.102 0-0.224 0-0.345 0-52.9 21.532-100.77 56.31-135.325l278.623-278.623c34.758-34.822 82.81-56.364 135.893-56.364s101.135 21.542 135.89 56.362l147.63 147.63c34.822 34.758 56.364 82.81 56.364 135.893s-21.542 101.135-56.362 135.89l-0.003 0.003zM320 576c-35.346 0-64 28.654-64 64s28.654 64 64 64c35.346 0 64-28.654 64-64v0c0-35.346-28.654-64-64-64v0z" />
<glyph unicode="&#xe921;" glyph-name="cube" d="M512 472.858l403.717 229.285c-6.435 6.429-14.149 11.571-23.576 16.715l-302.14 172.284c-26.571 15.002-52.286 23.144-78.001 23.144-25.713 0-51.429-8.143-78-23.144l-302.142-172.284c-9.428-5.144-17.143-10.286-23.572-16.715zM482.858-18.286v439.713l-402.428 229.716c-2.143-9.43-3.429-19.716-3.429-32.572v-333.857c0-62.142 21.857-85.286 61.714-108.001l335.57-191.142c3.001-1.713 5.572-3.001 8.572-3.856zM541.144-18.286c3.001 0.856 5.572 2.143 8.572 3.856l335.57 191.142c39.857 22.715 61.712 45.859 61.712 108.001v333.857c0 12.857-1.282 23.142-3.423 32.572l-402.432-229.716z" />
<glyph unicode="&#xe922;" glyph-name="mobile" d="M682.667 821.333h-341.333c-40.96 0-74.667-33.707-74.667-74.667v-597.333c0-40.96 33.707-74.667 74.667-74.667h341.333c40.96 0 74.667 33.707 74.667 74.667v597.333c0 40.96-33.707 74.667-74.667 74.667zM693.333 149.333c0-5.973-4.693-10.667-10.667-10.667h-341.333c-5.973 0-10.667 4.693-10.667 10.667v597.333c0 5.973 4.693 10.667 10.667 10.667h341.333c5.973 0 10.667-4.693 10.667-10.667v-597.333zM554.667 277.333c0-23.467-19.2-42.667-42.667-42.667s-42.667 19.2-42.667 42.667c0 23.467 19.2 42.667 42.667 42.667s42.667-19.2 42.667-42.667z" />
<glyph unicode="&#xe923;" glyph-name="exit" d="M64 448c0 0.040 0 0.086 0 0.133 0 212.077 171.923 384 384 384 58.372 0 113.702-13.024 163.242-36.325l-2.346 0.992c16.612-7.8 27.908-24.389 27.908-43.616 0-26.53-21.507-48.036-48.036-48.036-7.302 0-14.224 1.629-20.422 4.544l0.294-0.124c-35.338 16.669-76.76 26.4-120.455 26.4-159.058 0-288-128.942-288-288s128.942-288 288-288c43.695 0 85.117 9.731 122.218 27.143l-1.762-0.743c6.125 3.043 13.34 4.823 20.971 4.823 26.51 0 48-21.49 48-48 0-19.507-11.637-36.297-28.347-43.805l-0.303-0.122c-47.211-22.328-102.563-35.363-160.96-35.363-212.077 0-384 171.923-384 384 0 0.035 0 0.069 0 0.104v-0.005zM719.68 659.52c-9.669-8.813-15.713-21.46-15.713-35.518 0-12.468 4.753-23.825 12.547-32.359l-0.034 0.037 87.040-95.68h-371.52c-26.51 0-48-21.49-48-48s21.49-48 48-48h371.52l-87.040-95.68c-7.754-8.498-12.503-19.855-12.503-32.32 0-26.523 21.501-48.023 48.023-48.023 14.057 0 26.704 6.040 35.486 15.666l0.034 0.038 160 176c7.782 8.484 12.552 19.842 12.552 32.314 0 12.538-4.82 23.951-12.709 32.486l0.029-0.032-159.872 175.872c-8.813 9.669-21.46 15.713-35.518 15.713-12.468 0-23.825-4.753-32.359-12.547l0.037 0.034z" />
<glyph unicode="&#xe924;" glyph-name="translate" d="M934.4 81.067l-211.2 531.2c-6.776 16.148-22.3 27.359-40.487 27.733l-0.047 0.001h-42.667c-18.233-0.375-33.757-11.586-40.423-27.438l-0.11-0.295-102.4-258.133c-45.767 25.71-85.080 56.187-119.331 91.592l-0.136 0.141c72.533 85.333 125.867 187.733 132.267 279.467h42.667c0.244-0.005 0.531-0.007 0.819-0.007 21.726 0 39.84 15.466 43.934 35.989l0.048 0.286c0.307 1.924 0.483 4.143 0.483 6.403 0 23.564-19.103 42.667-42.667 42.667-0.17 0-0.34-0.001-0.509-0.003h-181.307v61.867c0.005 0.244 0.007 0.531 0.007 0.819 0 21.726-15.466 39.84-35.989 43.934l-0.286 0.048c-1.924 0.307-4.143 0.483-6.403 0.483-23.564 0-42.667-19.103-42.667-42.667 0-0.17 0.001-0.34 0.003-0.509v0.026-64h-157.867c-0.244 0.005-0.531 0.007-0.819 0.007-21.726 0-39.84-15.466-43.934-35.989l-0.048-0.286c-0.307-1.924-0.483-4.143-0.483-6.403 0-23.564 19.103-42.667 42.667-42.667 0.17 0 0.34 0.001 0.509 0.003h296.507c-6.4-64-49.067-142.933-104.533-215.467-24.082 30.481-46.704 64.679-66.365 100.725l-1.902 3.808c-7.272 15.498-22.746 26.038-40.682 26.038-2.205 0-4.373-0.159-6.493-0.467l0.242 0.029c-19.945-3.838-34.808-21.152-34.808-41.937 0-7.291 1.829-14.155 5.053-20.158l-0.112 0.228c27.007-50.304 56.008-93.605 88.677-133.804l-1.21 1.538c-42.009-43.256-91.429-79.034-146.257-105.337l-3.076-1.33c-16.697-7.436-28.127-23.883-28.127-43.001 0-2.139 0.143-4.244 0.42-6.307l-0.026 0.241c4.105-19.619 21.26-34.142 41.806-34.142 0.302 0 0.604 0.003 0.905 0.009l-0.045-0.001 17.067 4.267c68.11 31.2 126.124 72.829 174.745 123.536l0.188 0.197c41.629-42.441 89.4-78.648 141.919-107.232l3.147-1.568-76.8-194.133c-2.253-5.028-3.565-10.897-3.565-17.072 0-23.317 18.704-42.266 41.928-42.66h0.037c18.058 0.92 33.341 11.915 40.413 27.439l0.12 0.294 83.2 206.933h221.867l83.2-206.933c7.192-15.818 22.476-26.813 40.42-27.729l0.113-0.005c23.26 0.395 41.965 19.344 41.965 42.661 0 6.176-1.312 12.045-3.672 17.344l0.108-0.271zM584.533 341.333l76.8 194.133 76.8-194.133z" />
<glyph unicode="&#xe925;" glyph-name="brush" d="M329.606 657.666c-28.876-28.844-42.876-91.126-13.126-159.968 31.626-73.126 13.968-106.626-11.5-134.906-24.344-26.968-231.812-206.218-272.876-247.28-41.062-41.094-41.062-107.656 0-148.718s107.626-41.062 148.688 0 218.718 243.156 247.282 272.874c26.376 27.438 61.812 43.126 134.906 11.5 68.876-29.75 131.126-15.718 159.968 13.156l39.376 39.312-393.406 393.374-39.312-39.344zM134.074 13.542c-15.25-15.25-40-15.25-55.25 0s-15.25 39.968 0 55.218 40 15.25 55.25 0 15.25-39.968 0-55.218zM1002.136 640.73l-180.876 180.906c-6.844 6.844-17.532 8.126-25.782 3.062l-93.5-56.876 55.594 95.312c4.812 8.25 3.468 18.718-3.282 25.468l-50.872 50.878c-14.282 14.282-34 21.688-54.126 20.376-20.156-1.312-38.75-11.25-51.032-27.25l-176.876-230.376 343.532-343.532 230.376 176.876c15.968 12.282 25.906 30.906 27.25 51.032 1.314 20.154-6.124 39.874-20.406 54.124z" />
<glyph unicode="&#xe926;" glyph-name="brush-alt" d="M690.773 874.667h-357.547c-155.307 0-247.893-92.587-247.893-247.893v-357.12c0-155.733 92.587-248.32 247.893-248.32h357.12c155.307 0 247.893 92.587 247.893 247.893v357.547c0.427 155.307-92.16 247.893-247.467 247.893zM447.573 246.613c-14.507-14.507-33.707-24.32-57.173-27.307l-57.6-6.4c-31.573-3.413-58.453 23.467-55.040 55.467l6.4 58.027c5.547 51.627 48.64 84.48 94.293 85.333 4.267 0.427 9.387 0 14.080-0.427 20.053-2.56 39.253-11.947 55.467-27.733 15.787-15.787 24.747-34.56 27.307-53.76 0.427-4.693 0.853-9.387 0.853-13.653 0-26.453-9.813-50.773-28.587-69.547zM744.107 637.867c-30.72-76.8-101.12-177.493-168.107-243.2-9.813 60.587-58.027 108.373-119.467 116.907 65.707 67.413 167.253 138.667 244.48 169.813 13.653 5.12 27.307 1.28 35.84-7.253 8.533-9.387 12.8-22.613 7.253-36.267z" />
<glyph unicode="&#xe927;" glyph-name="eye-hide" d="M243.503 119.164l597.333 597.333c16.661 16.663 16.661 43.677 0 60.34s-43.678 16.662-60.339 0l-597.334-597.334c-16.662-16.661-16.662-43.678 0-60.339s43.677-16.661 60.34 0zM512 746.667c51.247 0 102.144-9.114 150.878-27.108l-68.241-68.244c-27.371 6.704-55.083 10.019-82.637 10.019-124.877 0-253.072-68.102-337.42-211.145 27.929-49.067 61.015-89.485 97.397-121.532l-60.417-60.416c-45.73 41.178-86.344 92.847-119.388 154.688-9.245 17.301-9.127 38.537 0.416 55.761 97.618 176.164 256.757 267.977 419.412 267.977zM512 576c2.389 0 4.766-0.066 7.125-0.195l-134.93-134.93c-0.129 2.359-0.195 4.736-0.195 7.125 0 70.694 57.306 128 128 128zM639.804 455.125l-134.929-134.929c2.359-0.132 4.736-0.196 7.125-0.196 70.694 0 128 57.306 128 128 0 2.389-0.064 4.766-0.196 7.125zM512 234.667c-27.52 0-55.206 3.345-82.543 10.112l-68.153-68.156c48.642-18.112 99.487-27.29 150.696-27.29 163.721 0 323.763 93.811 419.827 273.596 9.246 17.301 9.126 38.537-0.414 55.761-33.097 59.725-73.267 109.756-118.242 149.8l-60.442-60.441c35.908-31.207 68.71-70.411 96.691-117.86-83.149-146.078-212.023-215.522-337.421-215.522z" />
<glyph unicode="&#xe928;" glyph-name="eye" d="M268.863 295.377c-64.988 55.838-111.406 119.659-133.182 152.623 21.776 32.964 68.194 96.786 133.182 152.621 67.095 57.647 149.942 103.379 243.137 103.379 93.197 0 176.047-45.732 243.14-103.379 64.99-55.835 111.407-119.657 133.184-152.621-21.777-32.964-68.194-96.785-133.184-152.623-67.093-57.647-149.943-103.377-243.14-103.377-93.195 0-176.042 45.73-243.137 103.377zM512 789.333c-121.705 0-223.694-59.504-298.747-123.987-75.325-64.717-127.597-137.884-150.795-173.391-17.528-26.825-17.528-61.086 0-87.91 23.198-35.507 75.469-108.672 150.795-173.393 75.053-64.482 177.042-123.985 298.747-123.985 121.707 0 223.697 59.503 298.752 123.985 75.324 64.721 127.595 137.886 150.793 173.393 17.527 26.825 17.527 61.086 0 87.91-23.198 35.507-75.469 108.674-150.793 173.391-75.055 64.483-177.045 123.987-298.752 123.987zM426.667 448c0 47.13 38.208 85.333 85.333 85.333 47.13 0 85.333-38.204 85.333-85.333s-38.204-85.333-85.333-85.333c-47.125 0-85.333 38.204-85.333 85.333zM512 618.667c-94.255 0-170.665-76.41-170.665-170.667 0-94.255 76.41-170.667 170.665-170.667 94.259 0 170.667 76.412 170.667 170.667 0 94.257-76.407 170.667-170.667 170.667z" />
<glyph unicode="&#xe929;" glyph-name="star-alt" d="M769.757 428.3c-50.995-49.347-74.291-120.344-62.208-190.025l22.374-129.512-117.248 61.147c-30.925 16.14-65.741 24.674-100.659 24.674-34.97 0-69.786-8.533-100.71-24.674l-117.248-61.147 22.426 129.512c12.032 69.681-11.264 140.678-62.259 190.025l-94.822 91.721 131.072 18.92c70.502 10.142 131.379 54.028 162.918 117.419l58.624 117.858 58.624-117.858c31.488-63.39 92.416-107.276 162.867-117.419l131.123-18.92-94.874-91.721zM995.907 475.648c54.989 53.199 24.678 145.896-51.354 156.867l-193.229 27.843c-30.208 4.34-56.32 23.162-69.786 50.322l-86.426 173.69c-16.998 34.182-50.074 51.249-83.098 51.249-33.075 0-66.15-17.067-83.149-51.249l-86.374-173.69c-13.517-27.16-39.629-45.982-69.786-50.322l-193.229-27.843c-76.032-10.971-106.394-103.668-51.405-156.867l139.827-135.217c21.862-21.114 31.846-51.541 26.675-81.384l-33.024-190.952c-10.291-59.441 37.325-107.715 91.341-107.715 14.234 0 28.979 3.365 43.162 10.776l172.8 90.161c13.517 7.022 28.314 10.581 43.162 10.581 14.797 0 29.594-3.56 43.11-10.581l172.851-90.161c14.182-7.412 28.877-10.776 43.11-10.776 54.016 0 101.632 48.274 91.341 107.715l-32.973 190.952c-5.171 29.842 4.762 60.27 26.624 81.384l139.827 135.217z" />
<glyph unicode="&#xe92a;" glyph-name="star" d="M856.083 340.431c-21.862-21.114-31.795-51.541-26.675-81.384l33.024-190.952c10.291-59.441-37.325-107.715-91.341-107.715-14.234 0-28.928 3.365-43.162 10.776l-172.8 90.161c-13.517 7.022-28.314 10.533-43.162 10.533-14.797 0-29.594-3.511-43.11-10.533l-172.8-90.161c-14.234-7.412-28.928-10.776-43.162-10.776-54.016 0-101.632 48.274-91.341 107.715l33.024 190.952c5.12 29.842-4.813 60.27-26.675 81.384l-139.827 135.217c-54.989 53.199-24.627 145.896 51.354 156.867l193.229 27.843c30.208 4.34 56.32 23.162 69.786 50.322l86.426 173.69c16.998 34.182 50.074 51.249 83.098 51.249 33.075 0 66.15-17.067 83.149-51.249l86.426-173.69c13.466-27.16 39.578-45.982 69.786-50.322l193.229-27.843c75.981-10.971 106.342-103.668 51.354-156.867l-139.827-135.217z" />
<glyph unicode="&#xe92b;" glyph-name="fork" d="M256 746.667c0 23.564 19.103 42.667 42.667 42.667s42.667-19.103 42.667-42.667c0-23.564-19.103-42.667-42.667-42.667s-42.667 19.103-42.667 42.667zM341.333 625.95c49.715 17.571 85.333 64.984 85.333 120.716 0 70.692-57.308 128-128 128s-128-57.308-128-128c0-55.732 35.619-103.145 85.333-120.716v-355.9c-49.715-17.57-85.333-64.986-85.333-120.717 0-70.694 57.308-128 128-128s128 57.306 128 128c0 54.042-33.491 100.262-80.85 119.036 14.793 54.34 64.489 94.298 123.517 94.298h85.333c141.385 0 256 114.615 256 256v7.284c49.715 17.571 85.333 64.984 85.333 120.716 0 70.692-57.306 128-128 128s-128-57.308-128-128c0-55.732 35.618-103.145 85.333-120.716v-7.284c0-94.255-76.412-170.667-170.667-170.667h-85.333c-48.026 0-92.345-15.868-128-42.65v220.6zM768 704c23.565 0 42.667 19.103 42.667 42.667s-19.102 42.667-42.667 42.667c-23.565 0-42.667-19.103-42.667-42.667s19.102-42.667 42.667-42.667zM256 149.333c0 23.565 19.103 42.667 42.667 42.667s42.667-19.102 42.667-42.667c0-23.565-19.103-42.667-42.667-42.667s-42.667 19.102-42.667 42.667z" />
<glyph unicode="&#xe92c;" glyph-name="notification" d="M825.169 341.76l-42.667 70.827c-8.96 15.787-17.067 45.653-17.067 63.147v107.947c0 100.267-58.88 186.88-143.787 227.413-22.187 39.253-63.147 63.573-110.080 63.573-46.507 0-88.318-25.173-110.505-64.853-83.2-41.387-140.8-127.147-140.8-226.133v-107.947c0-17.493-8.107-47.36-17.067-62.72l-43.093-71.253c-17.067-28.587-20.907-60.16-10.24-89.173 10.24-28.587 34.56-50.773 66.133-61.44 82.773-28.16 169.813-41.813 256.852-41.813s174.080 13.653 256.853 41.387c29.867 9.813 52.907 32.427 64 61.867s8.107 61.867-8.533 89.173zM632.734 106.24c-17.92-49.493-65.28-84.907-120.747-84.907-33.707 0-66.987 13.653-90.454 37.973-13.653 12.8-23.893 29.867-29.867 47.36 5.547-0.853 11.093-1.28 17.067-2.133 9.813-1.28 20.054-2.56 30.294-3.413 24.32-2.133 49.067-3.413 73.813-3.413 24.32 0 48.64 1.28 72.533 3.413 8.96 0.853 17.92 1.28 26.453 2.56 6.827 0.853 13.653 1.707 20.907 2.56z" />
<glyph unicode="&#xe92d;" glyph-name="clouds-sun" d="M667.435 115.456v-0.256h-402.361c-75.831 0-146.374 50.79-159.825 125.184-21.358 118.272 95.392 213.043 205.313 171.827l-1.078-39.168c-0.77-29.030 22.59-53.043 51.752-53.043 25.979 0 48.312 19.046 51.239 44.8 3.080 26.726 7.701 60.16 14.632 94.106 41.381 203.571 420.536 247.91 487.228-24.883 40.765-166.81-86.767-316.006-246.9-318.566zM513.412 780.8c57.399 0 109.973-19.251 152.535-51.2-148.684 0-275.548-90.061-330.175-218.47-25.055 8.141-51.29 13.67-79.065 13.67 0 141.158 115.158 256 256.706 256zM832.959 688.282c-59.607 115.661-180.156 194.918-319.548 194.918-205.519 0-370.991-172.186-358.413-379.443-91.131-39.322-154.999-129.638-154.999-234.957 0-141.363 114.953-256 256.706-256h410.73c-0.513 0-0.976 0.154-1.54 0.154 0.565 0.051 1.54 0.154 1.54 0.154 205.365 3.021 356.565 162.099 356.565 358.093 0 137.677-77.268 257.075-191.041 317.082z" />
<glyph unicode="&#xe92e;" glyph-name="sun-moon" d="M416 736c-19.2 0-32 12.8-32 32v32c0 19.2 12.8 32 32 32s32-12.8 32-32v-32c0-19.2-12.8-32-32-32zM188.8 643.2c-9.6 0-16 3.2-22.4 9.6l-67.2 67.2c-12.8 12.8-12.8 32 0 44.8s32 12.8 44.8 0l67.2-67.2c12.8-12.8 12.8-32 0-44.8-6.4-6.4-12.8-9.6-22.4-9.6zM96 416h-32c-19.2 0-32 12.8-32 32s12.8 32 32 32h32c19.2 0 32-12.8 32-32s-12.8-32-32-32zM121.6 121.6c-9.6 0-16 3.2-22.4 9.6-12.8 12.8-12.8 32 0 44.8l67.2 67.2c12.8 12.8 32 12.8 44.8 0s12.8-32 0-44.8l-67.2-67.2c-6.4-6.4-12.8-9.6-22.4-9.6zM416 64c-19.2 0-32 12.8-32 32v32c0 19.2 12.8 32 32 32s32-12.8 32-32v-32c0-19.2-12.8-32-32-32zM704 160c-160 0-288 128-288 288s128 288 288 288 288-128 288-288-128-288-288-288zM352 448c0 99.2 41.6 188.8 105.6 252.8-12.8 3.2-25.6 3.2-41.6 3.2-140.8 0-256-115.2-256-256s115.2-256 256-256c16 0 28.8 0 41.6 3.2-64 64-105.6 153.6-105.6 252.8z" />
<glyph unicode="&#xe92f;" glyph-name="sun" d="M768.064 447.92c0-141.394-114.622-256.016-256.016-256.016s-256.016 114.622-256.016 256.016c0 141.394 114.622 256.016 256.016 256.016s256.016-114.622 256.016-256.016zM192.016 448.048c0 35.376-28.624 64-64 64h-64.016c-35.376 0-64-28.624-64-64s28.624-64 64-64h64c35.392 0 64.016 28.624 64.016 64zM195.264 221.776l-45.312-45.328c-25.008-24.992-25.008-65.504 0-90.496 24.992-24.992 65.504-24.992 90.512 0l45.328 45.312c24.992 24.992 24.992 65.52 0 90.512-25.024 25.008-65.52 25.008-90.528 0zM512.048 128.016c-35.376 0-64-28.624-64-64v-64.016c0-35.376 28.624-64 64-64s64 28.624 64 64l-0.064 64.016c0.064 35.376-28.624 64-63.936 64zM828.768 221.712c-24.944 25.056-65.456 25.056-90.448 0.064s-24.992-65.52 0-90.512l45.264-45.248c24.992-25.12 65.504-24.992 90.496 0s25.056 65.44 0 90.496l-45.312 45.2zM960.096 512.048l-64.144-0.128c-35.248 0.128-63.872-28.496-63.872-63.872-0.128-35.376 28.624-64 63.872-64h64.016c35.504-0.128 64 28.624 64 64 0.064 35.312-28.496 64-63.872 64zM828.768 674.256l45.248 45.264c25.184 25.056 24.992 65.504 0 90.512-24.944 25.072-65.44 25.072-90.432 0.064l-45.264-45.376c-24.992-24.88-24.992-65.376 0-90.384 24.864-25.152 65.504-25.024 90.448-0.080zM512.048 768.080c35.312-0.256 64 28.624 64 63.872v64c0 35.504-28.624 64-64 64-35.376 0.128-64-28.496-64-63.888l0.128-64.128c-0.128-35.232 28.496-63.856 63.872-63.856zM195.392 674.32c24.88-24.992 65.264-24.992 90.336 0.064 25.184 24.816 25.056 65.44 0.128 90.384l-45.264 45.248c-25.12 25.136-65.504 24.944-90.512 0-25.2-24.944-25.2-65.44-0.192-90.448l45.504-45.248z" />
<glyph unicode="&#xe930;" glyph-name="palette" d="M456.192 852.214c-269.476 0-456.192-215.593-456.192-323.379s53.893-188.621 161.69-188.621c107.786 0 161.679-26.952 161.679-107.796 0-107.786 80.845-188.621 188.631-188.621 350.31 0 512 188.621 512 377.252 0 323.379-244.429 431.165-567.808 431.165zM384.266 744.417c0.349 0.007 0.762 0.010 1.175 0.010 37.213 0 67.379-30.167 67.379-67.379s-30.167-67.379-67.379-67.379c-0.413 0-0.825 0.004-1.236 0.011l0.062-0.001c-36.704 0.66-66.205 30.569-66.205 67.369s29.501 66.709 66.143 67.368l0.062 0.001zM599.849 744.417c0.349 0.007 0.762 0.010 1.175 0.010 37.213 0 67.379-30.167 67.379-67.379s-30.167-67.379-67.379-67.379c-0.413 0-0.825 0.004-1.236 0.011l0.062-0.001c-36.704 0.66-66.205 30.569-66.205 67.369s29.501 66.709 66.143 67.368l0.062 0.001zM794.952 636.631c37.207 0 67.369-30.162 67.369-67.369s-30.162-67.369-67.369-67.369v0c-37.207 0-67.369 30.162-67.369 67.369s30.162 67.369 67.369 67.369v0zM195.635 623.698c0.349 0.007 0.762 0.010 1.175 0.010 37.213 0 67.379-30.167 67.379-67.379s-30.167-67.379-67.379-67.379c-0.413 0-0.825 0.004-1.236 0.011l0.062-0.001c-36.704 0.66-66.205 30.569-66.205 67.369s29.501 66.709 66.143 67.368l0.062 0.001zM552.96 313.262c44.649 0 80.845-36.195 80.845-80.845v0c0-44.646-56.678-80.835-101.325-80.835s-80.839 36.19-80.845 80.834v0.001c0 44.646 56.678 80.845 101.325 80.845z" />
<glyph unicode="&#xe931;" glyph-name="color-picker" d="M873.685 810.197c-49.984 49.987-131.029 49.987-181.018 0l-65.404-65.402c-47.467 22.814-106.133 14.545-145.485-24.807l-30.473-30.47c-33.323-33.325-33.323-87.355 0-120.68l-276.702-276.712c-24.005-24.004-37.49-56.563-37.49-90.509v-76.8c0-28.275 22.923-51.2 51.2-51.2h76.8c33.948 0 66.505 13.487 90.51 37.491l276.709 276.706c33.323-33.318 87.351-33.318 120.674 0.004l30.473 30.468c39.351 39.356 47.62 98.018 24.806 145.489l65.399 65.402c49.988 49.987 49.988 131.032 0 181.019zM234.945 231.787l276.705 276.706 60.339-60.339-276.705-276.706c-8.002-8-18.854-12.497-30.17-12.497h-42.667v42.667c0 11.315 4.495 22.17 12.497 30.17z" />
<glyph unicode="&#xe932;" glyph-name="colors" d="M352 640c28.67 0 56.54-3.428 83.221-9.895-108.302-75.124-179.221-200.332-179.221-342.105s70.919-266.98 179.217-342.083c-26.677-6.489-54.547-9.917-83.217-9.917-194.404 0-352 157.596-352 352s157.596 352 352 352zM672 640c194.404 0 352-157.596 352-352s-157.596-352-352-352-352 157.596-352 352 157.596 352 352 352zM512 960c177.084 0 323.626-130.765 348.333-301.001-56.567 28.793-120.557 45.001-188.333 45.001-56.718 0-110.786-11.351-160.054-31.905-49.215 20.566-103.256 31.905-159.946 31.905-67.789 0-131.79-16.214-188.338-44.976 24.712 170.211 171.254 300.976 348.338 300.976z" />
<glyph unicode="&#xe933;" d="M881.89 377.229c14.613 14.605 39.232 13.764 47.211-5.295 6.157-14.707 9.562-30.857 9.562-47.804v-119.369c0-25.19 0-46.921-1.626-64.747-1.719-18.854-5.53-37.517-15.753-55.078-11.149-19.149-27.076-35.081-46.229-46.229-17.562-10.223-36.224-14.033-55.078-15.753-17.826-1.626-39.552-1.626-64.742-1.621h-188.19c-14.029 0-21.837 19.213-11.917 29.133v0l326.763 326.763z" />
<glyph unicode="&#xe934;" d="M552.815 746.667c-1.553 20.401 4.604 41.353 20.292 54.49 3.418 2.863 6.78 5.563 10.086 8.087 22.434 17.118 47.39 30.079 78.14 30.079 30.754 0 55.71-12.961 78.144-30.079 20.937-15.972 43.977-39.018 70.72-65.764l39.949-39.947c26.748-26.744 49.792-49.787 65.762-70.722 17.118-22.436 30.080-47.389 30.080-78.142s-12.962-55.708-30.080-78.142c-15.97-20.937-39.014-43.977-65.762-70.72l-270.204-270.204c-9.57-9.57-28.156 0.235-27.127 13.73v0c1.865 24.529 1.865 52.087 1.86 80.269v145.745c-0.004 96.269-0.004 192.531 0 288.795v2.26c0.004 28.179 0.004 55.735-1.86 80.264v0z" />
<glyph unicode="&#xe935;" d="M512 664.142c0.004 37.824 0.004 70.413-3.503 96.51-3.763 27.969-12.241 54.778-33.988 76.524-21.743 21.745-48.554 30.225-76.523 33.986-32.66 4.391-66.411 3.505-99.319 3.505-39.021 0-72.578 0.090-99.319-3.505-27.968-3.76-54.778-12.24-76.524-33.986s-30.225-48.555-33.985-76.524c-3.509-26.097-3.507-58.687-3.505-96.51v-432.282c-0.002-37.824-0.004-70.413 3.505-96.512 3.761-27.968 12.24-54.78 33.986-76.523 21.746-21.747 48.556-30.225 76.524-33.988 32.81-4.412 66.297-3.503 99.319-3.503s66.51-0.909 99.319 3.503c27.969 3.763 54.78 12.241 76.523 33.988 21.747 21.743 30.225 48.555 33.988 76.523 3.507 26.099 3.507 58.688 3.503 96.512 0 144.094-0.009 288.188 0 432.282zM298.667 191.573c-23.564 0-42.667 19.102-42.667 42.667v0.427c0 23.565 19.102 42.667 42.667 42.667s42.667-19.102 42.667-42.667v-0.427c0-23.565-19.103-42.667-42.667-42.667z" />
<glyph unicode="&#xe936;" glyph-name="trash" d="M218.802 612.1c0-96.273 0-231.931 0-297.574 4.376-56.887 8.752-131.281 13.129-183.795 4.376-61.265 56.889-109.402 118.154-109.402h323.827c61.265 0 113.779 48.137 118.157 109.402 4.373 52.514 8.751 126.908 13.129 183.795 4.373 65.643 0 201.301 0 297.574h-586.395zM818.325 743.382h-109.402l-35.008 65.641c-21.879 39.384-61.265 65.641-105.028 65.641h-105.024c-43.761 0-87.522-26.257-105.026-65.641l-43.761-65.641h-109.402c-17.504 0-35.008-17.504-35.008-35.009s17.504-35.008 35.008-35.008h612.65c17.502 0 35.008 13.128 35.008 35.008s-17.506 35.009-35.008 35.009zM389.47 743.382l21.88 35.008c8.752 17.504 26.256 30.633 48.135 30.633h105.028c21.879 0 39.381-8.752 48.137-30.633l21.879-35.008h-245.060z" />
<glyph unicode="&#xe937;" glyph-name="brush-solid" d="M741.376 393.728l-361.984 361.984 76.8 76.8c25.6 28.672 117.76 24.064 179.712-16.384 61.952-40.96 73.216-65.536 148.992-107.52 60.416-32.768 125.44-64.512 227.84-43.52zM705.024 357.376l-361.984 361.984-90.624-90.624c-19.968-19.968-19.968-52.224 0-72.192l54.272-54.272c19.968-19.968 19.968-52.736 0-72.704-30.72-30.72-73.216-56.832-113.152-86.528-17.92-13.312-35.84-27.136-51.712-43.008-68.608-68.608-121.344-163.328-70.144-214.016 50.688-51.2 145.408 1.536 214.016 69.632 15.872 15.872 29.696 33.792 43.52 52.224 29.184 39.936 55.296 82.432 86.528 113.152 19.968 19.968 52.224 19.968 72.192 0l54.272-54.272c19.968-19.968 52.224-19.968 72.192 0z" />
<glyph unicode="&#xe938;" glyph-name="text-a" d="M552.448 182.221c4.326-9.958 13.056-15.821 21.99-15.821 3.738 0 7.45 0.973 10.957 3.046 12.211 6.912 17.050 24.013 11.059 38.118l-217.344 506.266c-0.102 0.23-0.23 0.435-0.333 0.614-0.435 0.922-0.922 1.792-1.408 2.662-0.461 0.717-0.87 1.434-1.306 2.099-0.486 0.691-1.024 1.254-1.562 1.818-0.538 0.768-1.178 1.51-1.894 2.202-0.435 0.384-1.024 0.742-1.51 1.203-0.87 0.691-1.664 1.306-2.586 1.869-0.23 0.102-0.282 0.23-0.461 0.358-0.435 0.23-0.819 0.358-1.178 0.589-0.922 0.435-1.894 0.87-2.816 1.178-0.64 0.179-1.306 0.41-1.997 0.563-0.922 0.154-1.715 0.282-2.662 0.538-0.717 0.026-1.485 0.077-2.15 0.077-0.819 0-1.741 0-2.56-0.051-0.768-0.256-1.587-0.384-2.33-0.486-0.768-0.23-1.536-0.384-2.278-0.666-0.87-0.256-1.715-0.691-2.611-1.126-0.384-0.256-0.87-0.333-1.357-0.589-0.154-0.128-0.282-0.256-0.435-0.358-0.87-0.538-1.613-1.075-2.381-1.69-0.589-0.435-1.254-0.87-1.792-1.434-0.589-0.563-1.126-1.28-1.664-1.894-0.538-0.691-1.203-1.331-1.741-2.125-0.435-0.563-0.742-1.178-1.126-1.843-0.538-0.896-1.126-1.843-1.51-2.842-0.154-0.205-0.256-0.41-0.384-0.563l-217.267-506.368c-6.067-14.106-1.126-31.232 10.982-38.118 3.558-2.074 7.296-3.046 10.931-3.046 9.037 0 17.715 5.862 21.99 15.821l45.030 104.883h300.723l44.979-104.883zM231.194 344.038l125.926 293.248 125.901-293.248h-251.827zM693.453 478.336c-7.296-9.293-12.314-11.853-18.867-11.853-11.725 0-21.12 10.982-21.12 24.448 0 5.888 1.459 10.138 3.635 14.31 20.378 37.146 59.648 66.637 120.781 66.637 84.352 0 130.944-57.344 130.944-143.309v-231.808c0-14.362-10.163-26.138-22.579-26.138-12.365 0-22.528 11.776-22.528 26.138v30.413c-18.202-39.68-60.416-60.774-104.064-60.774-77.082 0-125.85 42.982-125.85 120.576 0 74.138 48.768 118.861 127.334 118.861h102.579v22.707c0 57.318-32.742 92.774-85.862 92.774-38.554 0-61.875-13.491-84.403-42.982zM863.693 323.2v35.405h-102.579c-47.334 0-80-22.784-80-71.629 0-43.853 26.138-71.68 82.867-71.68 50.97 0 99.712 36.25 99.712 107.904z" />
<glyph unicode="&#xe939;" glyph-name="text-size" d="M42.667 469.333h149.333v-426.667h128v426.667h149.333v128h-426.667v-128zM981.333 853.333h-682.667v-128h277.333v-682.667h128v682.667h277.333v128z" />
<glyph unicode="&#xe93a;" glyph-name="text" d="M893.867 783.787c-12.373 17.92-28.16 33.707-46.080 46.080-40.533 29.44-93.44 44.8-157.013 44.8h-357.547c-8.533 0-17.067-0.427-25.173-1.28-139.947-8.96-222.72-99.84-222.72-246.613v-357.547c0-63.573 15.36-116.48 44.8-157.013 12.373-17.92 28.16-33.707 46.080-46.080 34.987-25.6 79.36-40.533 131.84-43.947 8.107-0.427 16.64-0.853 25.173-0.853h357.547c155.307 0 247.893 92.587 247.893 247.893v357.547c0 63.573-15.36 116.48-44.8 157.013zM800 580.267c0-17.493-14.507-32-32-32s-32 14.507-32 32v50.347c0 13.653-11.093 24.747-24.747 24.747h-167.253v-414.72h75.947c17.493 0 32-14.507 32-32s-14.507-32-32-32h-215.893c-17.493 0-32 14.507-32 32s14.507 32 32 32h75.947v414.72h-167.253c-13.653 0-24.747-11.093-24.747-24.747v-50.347c0-17.493-14.507-32-32-32s-32 14.507-32 32v50.347c0 49.067 39.68 88.747 88.747 88.747h398.080c49.067 0 88.747-39.68 88.747-88.747v-50.347h0.427z" />
<glyph unicode="&#xe93b;" glyph-name="text-italic" d="M893.867 783.787c-12.373 17.92-28.16 33.707-46.080 46.080-40.533 29.44-93.44 44.8-157.013 44.8h-357.547c-8.533 0-17.067-0.427-25.173-1.28-139.947-8.96-222.72-99.84-222.72-246.613v-357.547c0-63.573 15.36-116.48 44.8-157.013 12.373-17.92 28.16-33.707 46.080-46.080 34.987-25.6 79.36-40.533 131.84-43.947 8.107-0.427 16.64-0.853 25.173-0.853h357.547c155.307 0 247.893 92.587 247.893 247.893v357.547c0 63.573-15.36 116.48-44.8 157.013zM677.12 639.573h-83.2l-95.573-382.72h78.507c17.493 0 32-14.507 32-32s-14.507-32-32-32h-229.973c-17.493 0-32 14.507-32 32s14.507 32 32 32h85.333l95.573 382.72h-80.64c-17.493 0-32 14.507-32 32s14.507 32 32 32h229.547c17.493 0 32-14.507 32-32s-14.080-32-31.573-32z" />
<glyph unicode="&#xe93c;" glyph-name="palette-alt" d="M514.987 778.667c0 0-2.987 0-4.693 0-161.707 0-302.507-119.040-328.107-279.040-3.413-21.333 2.56-43.52 17.067-60.16 14.080-16.64 34.133-26.027 55.467-26.027h2.56c74.24 0 130.133-18.347 165.973-54.187 36.267-36.267 54.187-93.013 53.76-168.533 0-21.333 9.387-41.387 25.6-55.467 13.653-11.947 31.147-18.347 48.64-17.92 3.84 0 7.68 0 11.52 0.853 161.707 26.027 281.6 168.96 279.467 332.8-2.56 177.92-149.333 325.12-327.68 327.68h0.427zM552.96 181.333c-2.56 0-5.973 0.427-8.533 2.56-1.28 1.28-3.413 3.413-3.413 6.4 0.427 93.44-23.893 165.547-72.533 214.187-48.214 48.213-119.467 72.96-211.2 72.96h-2.56c-3.413 0-5.547 2.133-6.827 3.413-0.853 1.28-3.413 4.267-2.56 8.533 20.907 128.853 134.4 225.28 264.96 225.28 1.28 0 2.56 0 3.84 0 141.227-2.133 262.4-122.88 264.533-264.533 1.707-132.267-95.147-247.893-225.28-268.8h-0.427zM424.106 575.147c0-23.467-19.2-43.093-43.093-43.093s-43.093 19.2-43.093 43.093c0 23.893 19.2 43.093 43.093 43.093s43.093-19.2 43.093-43.093zM552.96 628.907c0-23.467-19.2-43.093-43.093-43.093s-43.093 19.2-43.093 43.093c0 23.893 19.2 43.093 43.093 43.093s43.093-19.2 43.093-43.093zM596.053 575.147c0 23.467 19.2 43.093 43.093 43.093s43.093-19.2 43.093-43.093c0-23.893-19.2-43.093-43.093-43.093s-43.093 19.2-43.093 43.093zM735.573 446.293c0-23.467-19.2-43.093-43.093-43.093s-43.093 19.2-43.093 43.093c0 23.893 19.2 43.093 43.093 43.093s43.093-19.2 43.093-43.093zM681.813 317.44c0-23.467-19.2-43.093-43.093-43.093s-43.093 19.2-43.093 43.093c0 23.893 19.2 43.093 43.093 43.093s43.093-19.2 43.093-43.093z" />
<glyph unicode="&#xe93d;" glyph-name="id-card" d="M810.667 160h-597.333c-19.768 0.111-38.695 8.013-52.674 21.995-13.978 13.978-21.881 32.905-21.993 52.672v426.667c0.112 19.768 8.015 38.695 21.993 52.674s32.905 21.881 52.674 21.993h597.333c19.767-0.112 38.694-8.015 52.672-21.993 13.982-13.979 21.884-32.905 21.995-52.674v-426.667c-0.111-19.767-8.013-38.694-21.995-52.672-13.978-13.982-32.905-21.884-52.672-21.995zM213.333 672c-2.829 0-5.542-1.124-7.543-3.124s-3.124-4.714-3.124-7.543v-426.667c0-2.829 1.124-5.542 3.124-7.543s4.714-3.123 7.543-3.123h597.333c2.829 0 5.542 1.122 7.543 3.123s3.123 4.715 3.123 7.543v426.667c0 2.829-1.122 5.542-3.123 7.543s-4.715 3.124-7.543 3.124h-597.333zM384 458.667c-16.877 0-33.376 5.005-47.409 14.383-14.033 9.374-24.97 22.703-31.429 38.293-6.458 15.595-8.148 32.752-4.856 49.305s11.42 31.758 23.354 43.692c11.934 11.934 27.139 20.061 43.692 23.354s33.711 1.603 49.303-4.856c15.592-6.459 28.921-17.396 38.295-31.429 9.378-14.033 14.383-30.531 14.383-47.409 0-22.63-8.99-44.335-24.994-60.339s-37.708-24.994-60.339-24.994zM384 565.333c-4.219 0-8.344-1.251-11.852-3.596s-6.243-5.676-7.857-9.574c-1.615-3.898-2.037-8.188-1.214-12.326s2.855-7.938 5.839-10.925c2.983-2.982 6.784-5.013 10.923-5.837s8.428-0.401 12.326 1.216c3.898 1.613 7.23 4.348 9.574 7.855 2.344 3.509 3.595 7.633 3.595 11.853 0 5.658-2.248 11.084-6.249 15.085s-9.427 6.249-15.085 6.249zM512 288c-8.452 0.111-16.529 3.516-22.507 9.493s-9.382 14.054-9.493 22.507c0 29.013-7.253 53.333-96 53.333s-96-24.32-96-53.333c0-8.486-3.372-16.627-9.373-22.626-6.001-6.003-14.141-9.374-22.627-9.374s-16.626 3.371-22.627 9.374c-6.001 5.999-9.373 14.14-9.373 22.626 0 117.333 120.32 117.333 160 117.333s160 0 160-117.333c-0.111-8.452-3.516-16.529-9.493-22.507s-14.054-9.382-22.507-9.493zM725.333 501.333h-128c-8.486 0-16.627 3.371-22.626 9.374-6.003 5.999-9.374 14.14-9.374 22.626s3.371 16.626 9.374 22.627c5.999 6.001 14.14 9.373 22.626 9.373h128c8.486 0 16.627-3.372 22.626-9.373 6.003-6.001 9.374-14.141 9.374-22.627s-3.371-16.627-9.374-22.626c-5.999-6.003-14.14-9.374-22.626-9.374zM682.667 373.333h-85.333c-8.486 0-16.627 3.371-22.626 9.374-6.003 5.999-9.374 14.14-9.374 22.626s3.371 16.627 9.374 22.626c5.999 6.003 14.14 9.374 22.626 9.374h85.333c8.486 0 16.627-3.371 22.626-9.374 6.003-5.999 9.374-14.14 9.374-22.626s-3.371-16.627-9.374-22.626c-5.999-6.003-14.14-9.374-22.626-9.374z" />
<glyph unicode="&#xe93e;" glyph-name="info-circle" d="M919.932 501.841l-57.6 67.412c-10.667 12.8-19.627 36.693-19.627 53.76v72.534c0 45.227-37.12 82.347-82.347 82.347h-72.533c-17.067 0-41.387 8.96-54.187 19.627l-67.413 57.6c-29.44 25.173-77.653 25.173-107.093 0l-68.268-57.6c-12.8-10.667-36.693-19.627-53.76-19.627h-73.813c-45.227 0-82.347-37.12-82.347-82.347v-72.534c0-16.64-8.533-40.533-19.2-53.333l-57.6-67.839c-24.747-29.867-24.747-77.653 0-106.667l57.6-67.84c10.667-12.373 19.2-36.693 19.2-53.333v-72.96c0-45.227 37.12-82.347 82.347-82.347h74.24c16.64 0 40.96-8.96 53.76-19.627l67.415-57.6c29.44-25.173 77.653-25.173 107.093 0l67.413 57.6c12.8 10.667 36.693 19.627 53.76 19.627h72.533c45.227 0 82.347 37.12 82.347 82.347v72.533c0 17.067 8.96 40.96 19.627 53.76l57.6 67.413c26.027 29.013 26.027 77.227 0.853 107.093zM480.038 613.2c0 17.493 14.507 32 32 32s32-14.507 32-32v-206.079c0-17.493-14.507-32-32-32s-32 14.507-32 32v206.079zM512.038 240.294c-23.467 0-42.667 19.2-42.667 42.667s18.773 42.667 42.667 42.667c23.467 0 42.667-19.2 42.667-42.667s-18.773-42.667-42.667-42.667z" />
<glyph unicode="&#xe93f;" glyph-name="user-circle" d="M85.333 448c0 235.642 191.025 426.667 426.667 426.667 235.639 0 426.667-191.025 426.667-426.667 0-235.639-191.027-426.667-426.667-426.667-235.642 0-426.667 191.027-426.667 426.667zM511.996 704c-94.256 0-170.666-76.41-170.666-170.667 0-94.255 76.41-170.667 170.666-170.667s170.667 76.412 170.667 170.667c0 94.257-76.412 170.667-170.667 170.667zM730.091 277.444c-10.159 6.541-21.244 12.254-33.284 17.152-48.196 19.605-109.943 25.404-184.806 25.404-74.487 0-135.887-6.195-183.958-26.014-11.948-4.924-22.957-10.641-33.066-17.165-32.473-20.958-30.899-66.573-1.193-91.298 59.161-49.242 135.234-78.857 218.22-78.857 83.541 0 160.068 30.012 219.396 79.838 29.444 24.734 31.023 70.118-1.31 90.94z" />
<glyph unicode="&#xe940;" glyph-name="search" d="M309.336 858.12c55.412 12.314 122.634 16.547 202.664 16.547s147.251-4.233 202.662-16.547c55.898-12.422 102.353-33.629 138.091-69.366s56.943-82.195 69.367-138.090c12.314-55.412 16.546-122.634 16.546-202.664s-4.233-147.251-16.546-202.662c-12.425-55.898-33.63-102.353-69.367-138.091s-82.193-56.943-138.091-69.367c-55.411-12.314-122.633-16.546-202.662-16.546s-147.252 4.233-202.664 16.546c-55.895 12.425-102.353 33.63-138.090 69.367s-56.943 82.193-69.366 138.091c-12.314 55.411-16.547 122.633-16.547 202.662s4.233 147.252 16.547 202.664c12.422 55.895 33.629 102.353 69.366 138.090s82.195 56.943 138.090 69.366zM384 469.333c0 58.91 47.757 106.667 106.667 106.667s106.667-47.757 106.667-106.667c0-58.91-47.757-106.667-106.667-106.667s-106.667 47.757-106.667 106.667zM490.667 661.333c-106.039 0-192-85.961-192-192s85.961-192 192-192c37.568 0 72.619 10.79 102.217 29.44l59.614-59.61c16.661-16.661 43.678-16.661 60.339 0s16.661 43.678 0 60.339l-59.61 59.614c18.65 29.598 29.44 64.649 29.44 102.217 0 106.039-85.961 192-192 192z" />
<glyph unicode="&#xe941;" glyph-name="verify" d="M407.842 802.253l-8.127-11.378c-8.984-12.578-24.069-19.313-39.431-17.606l-36.225 4.025c-81.525 9.058-150.411-59.828-141.353-141.353l4.025-36.224c1.707-15.363-5.028-30.447-17.606-39.431l-11.378-8.127c-71.468-51.051-71.468-157.265 0-208.316l11.378-8.128c12.578-8.981 19.313-24.068 17.606-39.428l-4.025-36.224c-9.058-81.527 59.828-150.413 141.353-141.355l36.224 4.023c15.363 1.707 30.447-5.026 39.431-17.604l8.127-11.379c51.051-71.467 157.265-71.467 208.316 0l8.128 11.379c8.981 12.578 24.068 19.311 39.428 17.604l36.224-4.023c81.527-9.058 150.413 59.827 141.355 141.355l-4.023 36.224c-1.707 15.36 5.026 30.447 17.604 39.428l11.379 8.128c71.467 51.051 71.467 157.269 0 208.316l-11.379 8.127c-12.578 8.984-19.311 24.069-17.604 39.431l4.023 36.225c9.058 81.525-59.827 150.411-141.355 141.353l-36.224-4.025c-15.36-1.707-30.447 5.028-39.428 17.606l-8.128 11.378c-51.051 71.468-157.269 71.468-208.316 0zM670.17 563.503c16.661-16.663 16.661-43.678 0-60.34l-162.94-162.94c-20.928-20.932-54.865-20.932-75.793 0l-77.607 77.606c-16.662 16.661-16.662 43.678 0 60.339s43.677 16.661 60.34 0l55.163-55.164 140.497 140.497c16.661 16.662 43.678 16.662 60.339 0z" />
<glyph unicode="&#xe942;" glyph-name="level" d="M690.086 715.13h66.782v-66.782h-66.782v66.782zM200.348 448c0-24.666 13.45-46.234 33.392-57.798v115.596c-19.942-11.564-33.392-33.132-33.392-57.798zM300.522 505.798v-115.596c19.942 11.564 33.392 33.134 33.392 57.798 0 24.666-13.452 46.234-33.392 57.798zM556.522 715.13h66.782v-66.782h-66.782v66.782zM923.826 715.13h-100.174v-77.912c0-30.686-24.966-55.652-55.652-55.652h-222.608c-30.686 0-55.652 24.966-55.652 55.652v77.912h-389.566c-55.236 0-100.174-44.938-100.174-100.174v-333.914c0-55.236 44.938-100.174 100.174-100.174h823.652c55.236 0 100.174 44.938 100.174 100.174v333.914c0 55.236-44.938 100.174-100.174 100.174zM267.13 314.434c-73.648 0-133.566 59.918-133.566 133.566s59.918 133.566 133.566 133.566c73.648 0 133.566-59.918 133.566-133.566s-59.918-133.566-133.566-133.566zM788.034 314.434h-264.904c-18.44 0-33.392 14.95-33.392 33.392s14.95 33.392 33.392 33.392h264.904c18.44 0 33.392-14.95 33.392-33.392s-14.95-33.392-33.392-33.392z" />
<glyph unicode="&#xe943;" glyph-name="username" d="M512 917.333c-259.206 0-469.333-210.128-469.333-469.333s210.128-469.333 469.333-469.333v0c23.564 0 42.667 19.103 42.667 42.667s-19.103 42.667-42.667 42.667v0c-212.077 0-384 171.923-384 384s171.923 384 384 384c212.077 0 384-171.923 384-384v0-121.899c0-43.759-35.473-79.232-79.232-79.232s-79.232 35.473-79.232 79.232v0 304.768c0 23.564-19.103 42.667-42.667 42.667s-42.667-19.103-42.667-42.667v0-7.637c-37.893 31.113-86.812 50.058-140.149 50.304h-0.054c-0.475 0.004-1.036 0.006-1.597 0.006-124.56 0-225.536-100.976-225.536-225.536s100.976-225.536 225.536-225.536c57.433 0 109.851 21.467 149.67 56.815l-0.232-0.202c20.79-68.466 83.353-117.438 157.355-117.438 90.651 0 164.139 73.487 164.139 164.139 0 0.112 0 0.224 0 0.336v-0.018 121.899c-0.315 259.079-210.255 469.018-469.303 469.333h-0.030zM512 307.797c-77.432 0-140.203 62.771-140.203 140.203s62.771 140.203 140.203 140.203c77.432 0 140.203-62.771 140.203-140.203v0c-0.097-77.393-62.81-140.106-140.193-140.203h-0.009z" />
<glyph unicode="&#xe944;" d="M0 960h1024v-1024h-1024v1024z" />
<glyph unicode="&#xe945;" d="M254.636 789.333c-18.716 0-34.865 0.001-48.23-0.911-14.073-0.96-28.149-3.072-42.055-8.832-31.363-12.991-56.282-37.91-69.273-69.273-5.76-13.906-7.872-27.983-8.832-42.055-0.912-13.366-0.911-29.515-0.911-48.23v-344.063c0-18.714-0.001-34.863 0.911-48.23 0.96-14.071 3.072-28.147 8.832-42.057 12.991-31.36 37.91-56.282 69.273-69.269 13.906-5.76 27.983-7.872 42.055-8.836 13.366-0.909 29.514-0.909 48.23-0.909h514.73c18.714 0 34.863 0 48.23 0.909 14.071 0.964 28.147 3.076 42.057 8.836 31.36 12.988 56.282 37.909 69.269 69.269 5.76 13.909 7.872 27.985 8.836 42.057 0.909 13.367 0.909 29.517 0.909 48.23v344.064c0 18.716 0 34.864-0.909 48.23-0.964 14.073-3.076 28.149-8.836 42.055-12.988 31.363-37.909 56.282-69.269 69.273-13.909 5.76-27.985 7.872-42.057 8.832-13.367 0.912-29.517 0.911-48.23 0.911h-514.73zM184.211 692.148c15.517 17.734 42.473 19.531 60.207 4.014l239.486-209.549c16.085-14.076 40.107-14.076 56.192 0l239.488 209.549c17.732 15.517 44.689 13.72 60.203-4.014 15.518-17.734 13.722-44.689-4.011-60.206l-239.488-209.551c-48.26-42.227-120.316-42.227-168.576 0l-239.487 209.551c-17.734 15.517-19.531 42.472-4.014 60.206z" />
<glyph unicode="&#xe946;" glyph-name="ellipsis" d="M512 800c0.591 0.016 1.287 0.025 1.985 0.025 42.006 0 76.264-33.171 78.010-74.747l0.005-0.158c-1.397-41.672-35.515-74.924-77.399-74.924-0.915 0-1.826 0.016-2.733 0.047l0.132-0.004c-0.775-0.028-1.686-0.044-2.601-0.044-41.884 0-76.002 33.251-77.396 74.796l-0.003 0.128c1.751 41.734 36.010 74.905 78.015 74.905 0.698 0 1.393-0.009 2.087-0.027l-0.102 0.002zM512 245.76c39.092-2.761 69.76-35.151 69.76-74.705 0-41.355-33.525-74.88-74.88-74.88-41.293 0-74.78 33.425-74.88 74.695v0.010c1.397 41.672 35.515 74.924 77.399 74.924 0.915 0 1.826-0.016 2.733-0.047l-0.132 0.004zM512 522.88c41.355 0 74.88-33.525 74.88-74.88s-33.525-74.88-74.88-74.88v0c-41.355 0-74.88 33.525-74.88 74.88s33.525 74.88 74.88 74.88v0z" />
<glyph unicode="&#xe947;" glyph-name="setting" d="M690.773 874.667h-357.547c-155.307 0-247.893-92.587-247.893-247.893v-357.12c0-155.733 92.587-248.32 247.893-248.32h357.12c155.307 0 247.893 92.587 247.893 247.893v357.547c0.427 155.307-92.16 247.893-247.467 247.893zM327.253 725.333c0 17.493 14.507 32 32 32s32-14.507 32-32v-166.4c0-17.493-14.507-32-32-32s-32 14.507-32 32v166.4zM406.307 258.931c-8.68-3.853-15.054-12.028-15.054-21.525v-66.739c0-17.493-14.507-32-32-32s-32 14.507-32 32v66.739c0 9.498-6.374 17.673-15.052 21.534-40.724 18.121-69.002 58.586-69.002 105.86 0 64 52.053 116.48 116.053 116.48s116.48-52.053 116.48-116.48c0-47.283-28.625-87.748-69.426-105.869zM696.747 170.667c0-17.493-14.507-32-32-32s-32 14.507-32 32v166.4c0 17.493 14.507 32 32 32s32-14.507 32-32v-166.4zM664.747 415.147c-64 0-116.48 52.053-116.48 116.48 0 47.281 28.625 87.747 69.427 105.868 8.678 3.855 15.053 12.029 15.053 21.526v66.313c0 17.493 14.507 32 32 32s32-14.507 32-32v-66.74c0-9.498 6.374-17.67 15.053-21.531 40.721-18.123 69.001-58.586 69.001-105.862 0-64-52.053-116.053-116.053-116.053z" />
<glyph unicode="&#xe948;" glyph-name="settings" d="M857.6 566.554c-77.227 0-108.8 54.613-70.4 121.6 22.187 38.827 8.96 88.32-29.867 110.507l-73.813 42.24c-33.707 20.053-77.227 8.107-97.28-25.6l-4.693-8.107c-38.4-66.987-101.547-66.987-140.373 0l-4.693 8.107c-19.2 33.707-62.72 45.653-96.427 25.6l-73.813-42.24c-38.827-22.187-52.053-72.107-29.867-110.933 38.827-66.56 7.253-121.173-69.973-121.173-44.373 0-81.067-36.267-81.067-81.067v-75.093c0-44.373 36.267-81.067 81.067-81.067 77.227 0 108.8-54.613 69.973-121.6-22.187-38.827-8.96-88.32 29.867-110.507l73.813-42.24c33.707-20.053 77.227-8.107 97.28 25.6l4.693 8.107c38.4 66.987 101.547 66.987 140.373 0l4.693-8.107c20.053-33.707 63.573-45.653 97.28-25.6l73.813 42.24c38.827 22.187 52.053 72.107 29.867 110.507-38.827 66.987-7.253 121.6 69.973 121.6 44.373 0 81.067 36.267 81.067 81.067v75.093c-0.427 44.373-36.693 81.067-81.493 81.067zM512 309.274c-76.373 0-138.667 62.293-138.667 138.667s62.293 138.667 138.667 138.667c76.373 0 138.667-62.293 138.667-138.667s-62.293-138.667-138.667-138.667z" />
<glyph unicode="&#xe949;" glyph-name="images" d="M789.333 800h-426.667c-31.119 0-60.963-12.362-82.967-34.366s-34.366-51.848-34.366-82.967v-10.667h-10.667c-31.119 0-60.963-12.362-82.967-34.366s-34.366-51.848-34.366-82.967v-341.333c0-31.117 12.362-60.962 34.366-82.965 22.004-22.007 51.848-34.368 82.967-34.368h426.667c31.117 0 60.962 12.361 82.965 34.368 22.007 22.003 34.368 51.849 34.368 82.965v10.667h10.667c31.117 0 60.962 12.361 82.965 34.368 22.007 22.003 34.368 51.849 34.368 82.965v341.333c0 31.119-12.361 60.963-34.368 82.967-22.003 22.004-51.849 34.366-82.965 34.366zM309.333 682.667c0 14.145 5.619 27.71 15.621 37.712s23.567 15.621 37.712 15.621h426.667c14.144 0 27.712-5.619 37.713-15.621s15.62-23.567 15.62-37.712v-264.533l-96.853 81.493c-3.153 2.743-6.822 4.83-10.79 6.144s-8.154 1.826-12.322 1.51c-4.169-0.32-8.23-1.459-11.955-3.358-3.721-1.903-7.031-4.523-9.732-7.71l-45.653-53.76-170.667 165.547c-2.726 3.252-6.118 5.886-9.941 7.726-3.827 1.839-8 2.842-12.245 2.941-4.395-0.166-8.713-1.236-12.676-3.145s-7.492-4.614-10.364-7.948l-130.133-154.88v229.973zM362.667 288c-14.145 0-27.71 5.619-37.712 15.62s-15.621 23.569-15.621 37.713v12.8l156.587 184.32 147.627-144.64-89.6-105.813h-161.28zM714.667 213.333c0-14.144-5.619-27.712-15.62-37.713s-23.569-15.62-37.713-15.62h-426.667c-14.145 0-27.71 5.619-37.712 15.62s-15.621 23.569-15.621 37.713v341.333c0 14.145 5.619 27.71 15.621 37.712s23.567 15.621 37.712 15.621h10.667v-266.667c0-31.117 12.362-60.962 34.366-82.965 22.004-22.007 51.848-34.368 82.967-34.368h352v-10.667zM789.333 288h-181.333l121.173 142.507 112.213-95.147c-1.267-12.941-7.296-24.947-16.913-33.698s-22.14-13.619-35.14-13.662z" />
<glyph unicode="&#xe94a;" glyph-name="image" d="M768 778.667h-512c-31.119 0-60.963-12.362-82.967-34.366s-34.366-51.848-34.366-82.967v-426.667c0-31.117 12.362-60.962 34.366-82.965 22.004-22.007 51.848-34.368 82.967-34.368h512c31.117 0 60.962 12.361 82.965 34.368 22.007 22.003 34.368 51.849 34.368 82.965v426.667c0 31.119-12.361 60.963-34.368 82.967-22.003 22.004-51.849 34.366-82.965 34.366zM256 714.667h512c14.144 0 27.712-5.619 37.713-15.621s15.62-23.567 15.62-37.712v-349.44l-116.053 116.053c-3.034 3.243-6.754 5.769-10.889 7.39-4.13 1.626-8.576 2.308-13.005 1.997-4.48-0.26-8.866-1.412-12.894-3.392-4.032-1.98-7.625-4.74-10.573-8.128l-55.040-66.133-196.267 196.267c-2.892 3.073-6.403 5.499-10.301 7.117s-8.094 2.391-12.313 2.269c-4.482-0.261-8.866-1.414-12.896-3.392s-7.624-4.742-10.571-8.128l-157.867-188.16v295.68c0 14.145 5.619 27.71 15.621 37.712s23.567 15.621 37.712 15.621zM202.667 234.667v31.147l183.467 220.16 175.787-175.787-107.52-128h-198.4c-13.998 0-27.436 5.5-37.414 15.317s-15.695 23.168-15.919 37.163zM768 181.333h-230.4l147.2 176.64 134.4-134.4c-2.359-11.861-8.742-22.545-18.074-30.242s-21.030-11.934-33.126-11.998z" />
<glyph unicode="&#xe94b;" glyph-name="pencil" d="M864 960c88.364 0 160-71.634 160-160 0-36.020-11.91-69.258-32-96l-64-64-224 224 64 64c26.742 20.090 59.978 32 96 32zM64 224l-64-288 288 64 592 592-224 224-592-592zM715.578 596.422l-448-448-55.156 55.156 448 448 55.156-55.156z" />
<glyph unicode="&#xe94c;" glyph-name="quill" d="M0-64c128 384 463 1024 1024 1024-263-211-384-704-576-704s-192 0-192 0l-192-320h-64z" />
<glyph unicode="&#xe94d;" glyph-name="pen" d="M1018.17 668.11l-286.058 286.058c-9.334 9.334-21.644 7.234-27.356-4.666l-38.354-79.904 267.198-267.198 79.904 38.354c11.9 5.712 14 18.022 4.666 27.356zM615.384 824.616l-263.384-21.95c-17.5-2.166-32.080-5.898-37.090-28.752-0.006-0.024-0.012-0.042-0.018-0.066-71.422-343.070-314.892-677.848-314.892-677.848l57.374-57.374 271.986 271.99c-5.996 12.53-9.36 26.564-9.36 41.384 0 53.020 42.98 96 96 96s96-42.98 96-96-42.98-96-96-96c-14.82 0-28.852 3.364-41.384 9.36l-271.988-271.986 57.372-57.374c0 0 334.778 243.47 677.848 314.892 0.024 0.006 0.042 0.012 0.066 0.018 22.854 5.010 26.586 19.59 28.752 37.090l21.95 263.384-273.232 273.232z" />
<glyph unicode="&#xe94e;" glyph-name="droplet" d="M864.626 486.838c-65.754 183.44-205.11 348.15-352.626 473.162-147.516-125.012-286.87-289.722-352.626-473.162-40.664-113.436-44.682-236.562 12.584-345.4 65.846-125.14 198.632-205.438 340.042-205.438s274.196 80.298 340.040 205.44c57.27 108.838 53.25 231.962 12.586 345.398zM738.764 201.044c-43.802-83.252-132.812-137.044-226.764-137.044-55.12 0-108.524 18.536-152.112 50.652 13.242-1.724 26.632-2.652 40.112-2.652 117.426 0 228.668 67.214 283.402 171.242 44.878 85.292 40.978 173.848 23.882 244.338 14.558-28.15 26.906-56.198 36.848-83.932 22.606-63.062 40.024-156.34-5.368-242.604z" />
<glyph unicode="&#xe94f;" glyph-name="dice" d="M864 768h-512c-88 0-160-72-160-160v-512c0-88 72-160 160-160h512c88 0 160 72 160 160v512c0 88-72 160-160 160zM416 64c-53.020 0-96 42.98-96 96s42.98 96 96 96 96-42.98 96-96-42.98-96-96-96zM416 448c-53.020 0-96 42.98-96 96s42.98 96 96 96 96-42.98 96-96-42.98-96-96-96zM608 256c-53.020 0-96 42.98-96 96s42.98 96 96 96 96-42.98 96-96-42.98-96-96-96zM800 64c-53.020 0-96 42.98-96 96s42.98 96 96 96 96-42.98 96-96-42.98-96-96-96zM800 448c-53.020 0-96 42.98-96 96s42.98 96 96 96 96-42.98 96-96-42.98-96-96-96zM828.76 832c-14.93 72.804-79.71 128-156.76 128h-512c-88 0-160-72-160-160v-512c0-77.046 55.196-141.83 128-156.76v636.76c0 35.2 28.8 64 64 64h636.76z" />
<glyph unicode="&#xe950;" glyph-name="pacman" d="M964.73 781.196c-93.902 109.45-233.21 178.804-388.73 178.804-282.77 0-512-229.23-512-512s229.23-512 512-512c155.52 0 294.828 69.356 388.728 178.804l-324.728 333.196 324.73 333.196zM704 839.398c39.432 0 71.398-31.964 71.398-71.398 0-39.432-31.966-71.398-71.398-71.398s-71.398 31.966-71.398 71.398c0 39.432 31.966 71.398 71.398 71.398z" />
<glyph unicode="&#xe951;" glyph-name="spades" d="M817.57 611.85c-193.566 143.858-260.266 259.018-305.566 348.148v0c-0.004 0-0.004 0.002-0.004 0.002v-0.002c-45.296-89.13-112-204.292-305.566-348.148-330.036-245.286-19.376-587.668 253.758-399.224-17.796-116.93-78.53-202.172-140.208-238.882v-37.744h384.032v37.74c-61.682 36.708-122.41 121.954-140.212 238.884 273.136-188.446 583.8 153.94 253.766 399.226z" />
<glyph unicode="&#xe952;" glyph-name="clubs" d="M786.832 567.228c-59.032 0-112.086-24.596-149.852-64.694-15.996-16.984-43.762-37.112-73.8-54.81 14.11 53.868 58.676 121.7 89.628 151.456 39.64 38.17 63.984 91.83 63.984 151.5 0.006 114.894-91.476 208.096-204.788 209.32-113.32-1.222-204.796-94.426-204.796-209.318 0-59.672 24.344-113.33 63.986-151.5 30.954-29.756 75.52-97.588 89.628-151.456-30.042 17.7-57.806 37.826-73.8 54.81-37.768 40.098-90.82 64.694-149.85 64.694-114.386 0-207.080-93.664-207.080-209.328 0-115.638 92.692-209.338 207.080-209.338 59.042 0 112.082 25.356 149.85 65.452 16.804 17.872 46.444 40.138 78.292 58.632-3.002-147.692-73.532-256.168-145.318-298.906v-37.742h384.014v37.74c-71.792 42.736-142.32 151.216-145.32 298.906 31.852-18.494 61.488-40.768 78.292-58.632 37.766-40.094 90.808-65.452 149.852-65.452 114.386 0 207.078 93.7 207.078 209.338-0.002 115.664-92.692 209.328-207.080 209.328z" />
<glyph unicode="&#xe953;" glyph-name="diamonds" d="M512 960l-320-512 320-512 320 512z" />
<glyph unicode="&#xe954;" glyph-name="mic" d="M480 256c88.366 0 160 71.634 160 160v384c0 88.366-71.634 160-160 160s-160-71.634-160-160v-384c0-88.366 71.636-160 160-160zM704 512v-96c0-123.71-100.29-224-224-224-123.712 0-224 100.29-224 224v96h-64v-96c0-148.238 112.004-270.3 256-286.22v-129.78h-128v-64h320v64h-128v129.78c143.994 15.92 256 137.982 256 286.22v96h-64z" />
<glyph unicode="&#xe955;" glyph-name="book" d="M896 832v-832h-672c-53.026 0-96 42.98-96 96s42.974 96 96 96h608v768h-640c-70.398 0-128-57.6-128-128v-768c0-70.4 57.602-128 128-128h768v896h-64zM224.056 128v0c-0.018-0.002-0.038 0-0.056 0-17.672 0-32-14.326-32-32s14.328-32 32-32c0.018 0 0.038 0.002 0.056 0.002v-0.002h607.89v64h-607.89z" />
<glyph unicode="&#xe956;" glyph-name="ticket" d="M575.996 640l127.998-127.998-255.994-255.994-127.998 127.998zM1001.526 662.496l-73.516 73.516-32.008-32.008c-16.378-16.38-39.010-26.51-64-26.51-49.988 0-90.514 40.522-90.514 90.51 0 25.002 10.14 47.638 26.534 64.018l31.988 31.986-73.518 73.516c-29.968 29.968-79.008 29.968-108.976 0l-595.040-595.038c-29.966-29.968-29.966-79.010 0-108.976l73.52-73.518 31.962 31.964c16.382 16.406 39.030 26.552 64.044 26.552 49.988 0 90.51-40.524 90.51-90.51 0-25.006-10.14-47.64-26.534-64.022l-31.984-31.986 73.516-73.518c29.966-29.966 79.008-29.966 108.976 0l595.040 595.040c29.964 29.976 29.964 79.016 0 108.984zM448.002 128.004l-256 256 384 384 256-256-384-384z" />
<glyph unicode="&#xe957;" glyph-name="clock-alt" d="M658.744 210.744l-210.744 210.746v282.51h128v-229.49l173.256-173.254zM512 960c-282.77 0-512-229.23-512-512s229.23-512 512-512 512 229.23 512 512-229.23 512-512 512zM512 64c-212.078 0-384 171.922-384 384s171.922 384 384 384c212.078 0 384-171.922 384-384s-171.922-384-384-384z" />
<glyph unicode="&#xe958;" glyph-name="clock" d="M512 960c-282.77 0-512-229.23-512-512s229.23-512 512-512 512 229.23 512 512-229.23 512-512 512zM658.744 210.744l-210.744 210.746v282.51h128v-229.49l173.256-173.254-90.512-90.512z" />
<glyph unicode="&#xe959;" glyph-name="alarm" d="M512 832c-247.424 0-448-200.576-448-448s200.576-448 448-448 448 200.576 448 448-200.576 448-448 448zM512 24c-198.824 0-360 161.178-360 360 0 198.824 161.176 360 360 360 198.822 0 360-161.176 360-360 0-198.822-161.178-360-360-360zM934.784 672.826c16.042 28.052 25.216 60.542 25.216 95.174 0 106.040-85.96 192-192 192-61.818 0-116.802-29.222-151.92-74.596 131.884-27.236 245.206-105.198 318.704-212.578v0zM407.92 885.404c-35.116 45.374-90.102 74.596-151.92 74.596-106.040 0-192-85.96-192-192 0-34.632 9.174-67.122 25.216-95.174 73.5 107.38 186.822 185.342 318.704 212.578zM512 384v256h-64v-320h256v64z" />
<glyph unicode="&#xe95a;" glyph-name="level-alt" d="M923.826 715.13h-823.652c-55.236 0-100.174-44.938-100.174-100.174v-333.914c0-55.236 44.938-100.174 100.174-100.174h823.652c55.236 0 100.174 44.938 100.174 100.174v333.914c0 55.236-44.938 100.174-100.174 100.174zM690.086 648.348h66.782v-66.782h-66.782v66.782zM556.522 648.348h66.782v-66.782h-66.782v66.782zM957.218 281.044c0-18.412-14.98-33.392-33.392-33.392h-823.652c-18.412 0-33.392 14.98-33.392 33.392v333.912c0 18.412 14.98 33.392 33.392 33.392h389.566v-77.912c0-30.686 24.966-55.652 55.652-55.652h222.608c30.686 0 55.652 24.966 55.652 55.652v77.912h100.174c18.412 0 33.392-14.98 33.392-33.392v-333.912zM267.13 581.566c-73.648 0-133.566-59.918-133.566-133.566s59.918-133.566 133.566-133.566c73.648 0 133.566 59.918 133.566 133.566s-59.918 133.566-133.566 133.566zM233.74 390.202c-19.942 11.564-33.392 33.134-33.392 57.798 0 24.666 13.45 46.234 33.392 57.798v-115.596zM300.522 390.202v115.596c19.942-11.564 33.392-33.134 33.392-57.798 0-24.666-13.452-46.234-33.392-57.798zM790.26 381.218h-269.356c-18.44 0-33.392-14.95-33.392-33.392s14.95-33.392 33.392-33.392h269.356c18.44 0 33.392 14.95 33.392 33.392s-14.95 33.392-33.392 33.392z" />
<glyph unicode="&#xe95b;" glyph-name="repo" d="M463.726 877.597v0zM82.403 496.273v0zM82.403 399.73v0zM463.727 18.405v0zM560.27 18.405v0zM941.595 399.73v0zM941.595 496.274v0zM560.27 877.597v0zM439.59 901.733l-381.323-381.323 48.272-48.272 381.323 381.323-48.272 48.272zM58.267 375.594l381.323-381.322 48.272 48.271-381.323 381.323-48.272-48.272zM584.406-5.728l381.322 381.322-48.271 48.272-381.323-381.323 48.272-48.271zM965.728 520.41l-381.322 381.323-48.272-48.272 381.323-381.323 48.271 48.272zM965.728 375.594c39.991 39.99 39.991 104.826 0 144.815l-48.271-48.272c13.332-13.33 13.332-34.942 0-48.271l48.271-48.272zM439.59-5.728c39.99-39.991 104.826-39.991 144.815 0l-48.272 48.271c-13.33-13.332-34.942-13.332-48.271 0l-48.272-48.271zM58.267 520.41c-39.99-39.99-39.99-104.826 0-144.815l48.272 48.272c-13.33 13.33-13.33 34.942 0 48.271l-48.272 48.272zM487.862 853.461c13.33 13.33 34.942 13.33 48.271 0l48.272 48.272c-39.99 39.99-104.826 39.99-144.815 0l48.272-48.272zM351.329 765.2l68.267-68.267 48.271 48.271-68.267 68.267-48.271-48.271zM511.998 618.669c-18.851 0-34.133 15.282-34.133 34.133h-68.267c0-56.554 45.846-102.4 102.4-102.4v68.267zM546.131 652.802c0-18.851-15.282-34.133-34.133-34.133v-68.267c56.554 0 102.4 45.846 102.4 102.4h-68.267zM511.998 686.935c18.851 0 34.133-15.282 34.133-34.133h68.267c0 56.554-45.846 102.4-102.4 102.4v-68.267zM511.998 755.202c-56.554 0-102.4-45.846-102.4-102.4h68.267c0 18.851 15.282 34.133 34.133 34.133v68.267zM556.129 560.4l102.4-102.4 48.27 48.271-102.399 102.4-48.271-48.271zM716.8 413.869c-18.855 0-34.135 15.282-34.135 34.133h-68.267c0-56.554 45.846-102.4 102.402-102.4v68.267zM750.933 448.002c0-18.851-15.285-34.133-34.133-34.133v-68.267c56.552 0 102.4 45.846 102.4 102.4h-68.267zM716.8 482.135c18.848 0 34.133-15.282 34.133-34.133h68.267c0 56.554-45.848 102.4-102.4 102.4v-68.267zM716.8 550.402c-56.556 0-102.402-45.846-102.402-102.4h68.267c0 18.851 15.28 34.133 34.135 34.133v68.267zM477.865 584.535v-273.067h68.267v273.067h-68.267zM511.998 209.067c-18.851 0-34.133 15.285-34.133 34.133h-68.267c0-56.552 45.846-102.4 102.4-102.4v68.267zM546.131 243.2c0-18.848-15.282-34.133-34.133-34.133v-68.267c56.554 0 102.4 45.848 102.4 102.4h-68.267zM511.998 277.335c18.851 0 34.133-15.28 34.133-34.135h68.267c0 56.556-45.846 102.402-102.4 102.402v-68.267zM511.998 345.602c-56.554 0-102.4-45.846-102.4-102.402h68.267c0 18.855 15.282 34.135 34.133 34.135v68.267z" />
<glyph unicode="&#xe95c;" glyph-name="shield" d="M256 384v320c0 0 72.277-68.286 128-64 48.435 3.726 106.667 64 106.667 64s58.231-60.274 106.667-64c55.723-4.286 128 64 128 64v-341.333c0-42.667 0-64-85.333-149.333s-149.333-106.667-149.333-106.667c0 0-85.333 42.667-149.333 106.667s-85.333 106.667-85.333 170.667z" />
<glyph unicode="&#xe95d;" glyph-name="damage-void" d="M983.808 646.816q40.192-94.784 40.192-198.816t-40.192-199.84q-39.136-90.656-109.184-161.728-71.072-72.128-162.784-110.24-95.808-40.192-199.84-40.192t-198.816 40.192q-90.656 38.112-162.784 110.24-69.024 68-109.184 161.728-41.216 97.856-41.216 199.84t41.216 198.816q40.192 95.808 109.184 162.784 72.128 72.128 162.784 110.24 97.856 40.192 198.816 40.192 99.936 0 199.84-40.192 91.68-38.112 162.784-110.24 70.048-70.048 109.184-162.784zM506.848 888.928q-175.136 1.024-297.216-115.904t-137.536-287.936h1.024v6.176l1.024 3.104v2.048l2.048 11.328 2.048 6.176 1.024 5.152q2.048 8.256 3.104 11.328 0 1.024 0.512 3.104t0.512 3.104l2.048 5.152 1.024 6.176q1.024 1.024 1.024 2.048 1.024 2.048 1.024 3.104 16.48 46.368 39.136 85.504 21.632 36.064 58.72 74.176 31.936 31.936 75.2 58.72 37.088 23.68 86.528 41.216 2.048 1.024 5.664 2.048t5.664 1.024q1.024 0 3.104 1.024t3.104 1.024l6.176 1.024q3.104 1.024 11.328 3.104l12.352 3.104q3.104 0 5.152 1.024l6.176 1.024q2.048 0 6.176 0.512t6.176 0.512l12.352 1.024q1.024 0 3.104 1.024h8.256q2.048 0 6.176 0.512t6.176 0.512h12.352q2.048 0 6.176-0.512t6.176-0.512h5.152q4.128 0 6.176-1.024 9.28 0 23.68-2.048 2.048-1.024 6.176-1.024l3.104-1.024h3.104q2.048-1.024 5.664-2.048t5.664-1.024h4.128q1.024-1.024 2.048-1.024t2.56-0.512 2.56-0.512 3.104-1.024 3.104-1.024h3.104l2.048-1.024q8.256-2.048 11.328-4.128h3.104l3.104-1.024q4.128-2.048 5.152-2.048 4.128-2.048 6.176-2.048l2.048-1.024 3.104-1.024q1.024-1.024 4.64-2.56t5.664-2.56l6.176-2.048q2.048-2.048 5.152-2.048 1.024-1.024 5.152-3.104l2.048-1.024 3.104-1.024q82.4-43.264 133.92-117.44 24.736-35.040 39.136-74.176 2.048-4.128 2.048-5.152 1.024-1.024 1.024-2.048t1.024-2.048q1.024-4.128 3.104-10.304 0-1.024 1.024-2.048l1.024-2.048v-3.104l1.024-2.048q1.024-1.024 2.048-5.152t1.024-5.152q2.048-6.176 2.048-9.28 1.024-4.128 3.104-10.304 0-1.024 0.512-4.64t0.512-5.664l1.024-2.048v-2.048q0-1.024 1.024-3.104v-2.048q5.152-44.288 1.024-77.248-3.104-33.984-14.432-69.024-9.28-26.784-25.76-57.696-18.528-28.832-31.936-45.312-2.048-3.104-8.256-9.28-1.024-2.048-4.128-5.152t-4.128-5.152-4.128-4.64-5.152-3.616l-5.152-4.128q-1.024-1.024-2.048-2.56t-2.048-2.56l-5.152-4.128q-2.048-1.024-5.152-4.128-2.048-1.024-5.152-3.616t-4.128-3.616q-4.128-3.104-10.304-7.2t-11.328-7.2q-2.048-2.048-4.128-2.048 16.48 5.152 39.136 16.48 33.984 17.504 60.768 40.192 29.888 26.784 50.464 54.592 19.584 26.784 37.088 64.896l1.024 2.048v2.048l4.128 8.256q0 1.024 0.512 2.56t0.512 2.56q1.024 1.024 2.048 4.128t1.024 4.128l1.024 5.152 2.048 4.128q1.024 2.048 1.024 5.152t1.024 4.128 1.024 2.048v2.048l1.024 5.152q2.048 4.128 2.048 8.256 1.024 1.024 1.024 4.128t1.024 5.152l1.024 5.152v4.128q0 1.024 1.024 4.128t1.024 5.152v9.28q1.024 3.104 1.024 9.28v9.28l1.024 5.152v4.128q0 6.176-1.024 9.28v9.28q0 3.104-0.512 9.28t-0.512 9.28q-1.024 3.104-1.024 9.28-1.024 1.024-1.024 4.128l-1.024 5.152q0 1.024-0.512 4.128t-0.512 5.152q-2.048 4.128-2.048 8.256-2.048 6.176-2.048 9.28l-3.104 9.28q-1.024 3.104-2.56 8.256t-1.536 6.176q-8.256 24.736-18.528 45.344-16.48 33.984-37.088 60.768-1.024 3.104-5.152 7.2-2.048 4.128-5.152 7.2-1.024 1.024-2.56 3.104t-2.56 3.104-2.56 3.616-2.56 3.616q-4.128 4.128-11.84 12.352t-11.84 12.352q-8.256 8.256-24.736 22.656-1.024 1.024-10.816 8.256t-14.944 11.328q-48.416 33.984-106.112 54.592h-2.048l-2.048 1.024q-1.024 1.024-3.104 1.024-4.128 2.048-6.176 2.048-1.024 0-3.104 1.024t-3.104 1.024h-1.024q-2.048 1.024-3.104 1.024t-3.104 1.024q-2.048 0-6.176 2.048-1.024 0-3.104 0.512t-3.104 0.512l-12.352 3.104q-38.112 7.2-51.52 7.2zM709.792 448q0 79.328-56.16 134.944t-134.432 55.616q-79.328 0-135.456-55.616t-56.16-134.944 56.16-134.944 135.456-55.616q78.304 0 134.432 55.616t56.16 134.944zM518.176 7.072q86.528-3.104 164.832 27.808t134.432 86.528 91.68 130.848 42.752 158.656v-1.024l-1.024-5.152v-3.104l-1.024-1.024v-2.048q0-3.104-2.048-11.328l-1.024-5.152-1.024-6.176q-1.024-3.104-3.104-11.328 0-1.024-2.048-5.152l-3.104-11.328v-3.104l-1.024-2.048q-15.456-46.368-40.192-85.504-24.736-40.192-58.72-74.176-37.088-37.088-75.2-59.744-39.136-24.736-85.504-40.192-8.256-2.048-12.352-4.128-1.024 0-2.56-0.512t-2.56-0.512l-6.176-2.048q-8.256-2.048-11.328-3.104-4.128 0-12.352-2.048-1.024 0-3.104-0.512t-3.104-0.512l-6.176-1.024q-3.104 0-11.328-2.048-8.256 0-12.352-1.024h-12.352q-4.128-1.024-12.352-1.024h-11.328q-8.256 0-12.352 1.024h-12.352q-7.2 1.024-23.68 3.104-1.024 0-3.104 0.512t-3.104 0.512h-3.104q-1.024 1.024-2.048 1.024-2.048 1.024-6.176 1.024t-6.176 1.024l-2.048 1.024h-3.104q-1.024 0-3.104 1.024t-3.104 1.024-2.56 0.512-2.56 0.512l-6.176 2.048q-2.048 1.024-5.664 2.048t-5.664 1.024l-3.104 1.024-2.048 1.024q-1.024 0-3.104 1.024t-3.104 1.024q-1.024 1.024-2.048 1.024t-1.536 0.512-1.536 0.512l-3.104 1.024-2.048 1.024q-2.048 0-5.664 1.536t-5.664 2.56l-2.048 1.024-3.104 2.048q-1.024 0-5.152 2.048t-5.152 2.048l-3.104 2.048-2.048 1.024q-82.4 41.216-133.92 117.44-24.736 35.040-40.192 74.176l-2.048 4.128q0 1.024-1.024 3.104v2.048q-2.048 3.104-4.128 9.28 0 1.024-0.512 2.56t-0.512 2.56q-1.024 1.024-1.024 2.048v1.024q-2.048 4.128-2.048 5.152t-0.512 2.56-0.512 2.56l-3.104 9.28q-1.024 4.128-3.104 10.304 0 2.048-2.048 10.304 0 3.104-2.048 9.28v5.152q-1.024 2.048-1.024 5.152-5.152 44.288-1.024 76.224 3.104 36.064 14.432 69.024 11.328 35.040 25.76 57.696 16.48 27.808 31.936 46.368 2.048 3.104 8.256 9.28 1.024 1.024 3.616 4.128t4.64 5.152l9.28 9.28 5.152 4.128 4.128 4.128 5.152 4.128q1.024 2.048 5.152 4.128 2.048 1.024 5.152 3.616t4.128 4.64q6.176 3.104 10.304 7.2 2.048 1.024 5.664 3.104t5.664 3.104q2.048 2.048 4.128 3.104-26.784-10.304-39.136-16.48-35.040-18.528-60.768-41.216-28.832-23.68-50.464-53.568-21.632-30.912-37.088-64.896 0-1.024-1.024-2.048v-2.048l-2.048-5.152-2.048-4.128q0-1.024-0.512-2.048t-0.512-2.048l-3.104-9.28-2.048-4.128-1.024-4.128q-2.048-6.176-2.048-9.28l-1.024-2.048v-3.104l-1.024-4.128q-2.048-6.176-2.048-9.28-2.048-6.176-2.048-9.28l-1.024-4.128q0-3.104-1.024-5.152 0-6.176-1.024-9.28 0-6.176-1.024-9.28v-9.28q0-6.176-1.024-9.28v-22.656q0-1.024 0.512-2.56t0.512-2.56q0-12.352 1.024-17.504 1.024-3.104 1.024-9.28 0-1.024 0.512-2.56t0.512-2.56l1.024-4.128q0-1.024 0.512-4.128t0.512-5.152q2.048-6.176 2.048-9.28 0-1.024 1.024-4.128t1.024-4.128q2.048-6.176 2.048-9.28 12.352-40.192 26.784-68 12.352-26.784 36.064-61.824 1.024-1.024 5.152-7.2 4.128-4.128 5.152-6.176 1.024-1.024 3.104-3.616t3.104-3.616q1.024-2.048 5.152-6.176 9.28-12.352 23.68-24.736 9.28-10.304 24.736-22.656 8.256-7.2 24.736-19.584 52.544-37.088 107.136-54.592 1.024 0 1.024-1.024l2.048-1.024q2.048 0 3.104-1.024 3.104 0 7.2-2.048 1.024 0 3.104-0.512t3.104-0.512q1.024-1.024 3.104-1.024 1.024-1.024 3.104-1.024 1.024 0 3.104-1.024t3.104-1.024 3.616-0.512 3.616-0.512l12.352-3.104q21.632-5.152 47.392-7.2h4.128z" />
<glyph unicode="&#xe95e;" glyph-name="close" d="M819.499 695.168c7.41 7.665 11.977 18.12 11.977 29.641 0 23.564-19.103 42.667-42.667 42.667-11.521 0-21.976-4.567-29.653-11.989l-247.156-247.156-247.168 247.168c-7.665 7.41-18.12 11.977-29.641 11.977-23.564 0-42.667-19.103-42.667-42.667 0-11.521 4.567-21.976 11.989-29.653l247.156-247.156-247.168-247.168c-8.036-7.769-13.026-18.647-13.026-30.69 0-23.564 19.103-42.667 42.667-42.667 12.043 0 22.92 4.989 30.678 13.014l247.18 247.18 247.168-247.168c7.665-7.41 18.12-11.977 29.641-11.977 23.564 0 42.667 19.103 42.667 42.667 0 11.521-4.567 21.976-11.989 29.653l-247.156 247.156 247.168 247.168z" />
</font>
</defs>
</svg>
