<?xml version="1.0" encoding="UTF-8" standalone="no"?>
<!-- Uploaded to: SVG Repo, www.svgrepo.com, Generator: SVG Repo Mixer Tools -->
<svg 
   viewBox="0 0 600 600"
   version="1.1"
   id="svg9724"
   sodipodi:docname="lang.svg"
   inkscape:version="1.2.2 (1:1.2.2+202212051550+b0a8486541)"
   width="600"
   height="600"
   xmlns:inkscape="http://www.inkscape.org/namespaces/inkscape"
   xmlns:sodipodi="http://sodipodi.sourceforge.net/DTD/sodipodi-0.dtd"
   xmlns="http://www.w3.org/2000/svg"
   xmlns:svg="http://www.w3.org/2000/svg">
  <defs
     id="defs9728">
    <inkscape:perspective
       sodipodi:type="inkscape:persp3d"
       inkscape:vp_x="120 : 410 : 1"
       inkscape:vp_y="0 : 1000 : 0"
       inkscape:vp_z="660 : 240 : 1"
       inkscape:persp3d-origin="445.59009 : 254.71928 : 1"
       id="perspective353" />
  </defs>
  <sodipodi:namedview
     id="namedview9726"
     pagecolor="#ffffff"
     bordercolor="#666666"
     borderopacity="1.0"
     inkscape:showpageshadow="2"
     inkscape:pageopacity="0.0"
     inkscape:pagecheckerboard="0"
     inkscape:deskcolor="#d1d1d1"
     showgrid="true"
     inkscape:zoom="0.84118632"
     inkscape:cx="109.96375"
     inkscape:cy="287.09454"
     inkscape:window-width="1920"
     inkscape:window-height="1009"
     inkscape:window-x="0"
     inkscape:window-y="1080"
     inkscape:window-maximized="1"
     inkscape:current-layer="g1082"
     showguides="true">
    <inkscape:grid
       type="xygrid"
       id="grid9972"
       originx="0"
       originy="0" />
    <sodipodi:guide
       position="-260,300"
       orientation="0,-1"
       id="guide383"
       inkscape:locked="false" />
    <sodipodi:guide
       position="300,520"
       orientation="1,0"
       id="guide385"
       inkscape:locked="false" />
    <sodipodi:guide
       position="540,400"
       orientation="0,-1"
       id="guide939"
       inkscape:locked="false" />
    <sodipodi:guide
       position="430,200"
       orientation="0,-1"
       id="guide941"
       inkscape:locked="false" />
    <sodipodi:guide
       position="290,450"
       orientation="0,-1"
       id="guide1084"
       inkscape:locked="false" />
  </sodipodi:namedview>
  
  <g
     id="g1082"
     transform="matrix(0.86666667,0,0,0.85677845,39.999999,42.966064)"
     style="stroke-width:1.16048">
    <path
       id="path241"
       style="color:#000000;fill:#000000;stroke-linecap:round;-inkscape-stroke:none"
       d="M 169.23678 -49.88168 A 46.419449 46.419449 0 0 0 122.81475 -3.4618798 L 122.81475 55.162979 L 0.26592663 55.162979 A 46.419399 46.419399 0 0 0 -46.153845 101.58278 A 46.419399 46.419399 0 0 0 0.26592663 148.00258 L 116.47311 148.00258 C 109.84235 231.66594 84.892611 296.90624 9.8820624 349.53878 A 46.419399 46.419399 0 0 0 -1.4558282 414.20006 A 46.419399 46.419399 0 0 0 63.206882 425.53431 C 117.86118 387.18509 154.12427 339.35301 177.04552 287.17079 C 199.33296 323.41323 229.4691 356.59924 269.49745 384.68589 A 46.419399 46.419399 0 0 0 334.1579 373.34936 A 46.419399 46.419399 0 0 0 322.82227 308.69036 C 260.47406 264.94257 232.70979 212.49731 221.29282 148.00258 L 338.13101 148.00258 A 46.419399 46.419399 0 0 0 384.54853 101.58278 A 46.419399 46.419399 0 0 0 338.13101 55.162979 L 215.65655 55.162979 L 215.65655 -3.4618798 A 46.419449 46.419449 0 0 0 169.23678 -49.88168 z M 449.2518 206.90099 A 46.419399 46.419399 0 0 0 406.83443 236.2442 L 268.37064 586.39306 A 46.419399 46.419399 0 0 0 294.46965 646.62961 A 46.419399 46.419399 0 0 0 354.70403 620.53257 L 380.02103 556.50959 L 531.51743 556.50959 L 556.83443 620.53257 A 46.419399 46.419399 0 0 0 617.07106 646.62961 A 46.419399 46.419399 0 0 0 643.16556 586.39306 L 504.70403 236.2442 A 46.419399 46.419399 0 0 0 462.28666 206.90099 A 46.419399 46.419399 0 0 0 455.76923 207.4367 A 46.419399 46.419399 0 0 0 449.2518 206.90099 z M 455.76923 364.95582 L 494.80394 463.66999 L 416.73452 463.66999 L 455.76923 364.95582 z " />
  </g>
</svg>