<?xml version="1.0" encoding="utf-8"?>

<!-- Uploaded to: SVG Repo, www.svgrepo.com, Generator: SVG Repo Mixer Tools -->
<svg fill="#000000" height="800px" width="800px" version="1.1" id="Icons" xmlns="http://www.w3.org/2000/svg" xmlns:xlink="http://www.w3.org/1999/xlink" 
	 viewBox="0 0 32 32" xml:space="preserve">
<g>
	<path d="M8.2,9.6c0.2,0.2,0.5,0.3,0.7,0.3s0.5-0.1,0.7-0.3c0.4-0.4,0.4-1,0-1.4L7.5,6.1c-0.4-0.4-1-0.4-1.4,0s-0.4,1,0,1.4L8.2,9.6
		z"/>
	<path d="M7,16c0-0.6-0.4-1-1-1H3c-0.6,0-1,0.4-1,1s0.4,1,1,1h3C6.6,17,7,16.6,7,16z"/>
	<path d="M8.2,22.4l-2.1,2.1c-0.4,0.4-0.4,1,0,1.4c0.2,0.2,0.5,0.3,0.7,0.3s0.5-0.1,0.7-0.3l2.1-2.1c0.4-0.4,0.4-1,0-1.4
		S8.6,22,8.2,22.4z"/>
</g>
<path d="M29.4,16.2c-0.4-0.2-0.9-0.1-1.2,0.3c-0.8,1-2,1.5-3.2,1.5c-2.3,0-4.3-1.9-4.3-4.3c0-1.6,0.9-3,2.3-3.8
	c0.4-0.2,0.6-0.7,0.5-1.1C23.4,8.4,23,8,22.5,8c-0.1,0-0.3,0-0.4,0c-1.9,0-3.7,0.7-5.1,1.8V3c0-0.6-0.4-1-1-1s-1,0.4-1,1v5.1
	c-3.9,0.5-7,3.9-7,7.9s3.1,7.4,7,7.9V29c0,0.6,0.4,1,1,1s1-0.4,1-1v-6.8c1.4,1.2,3.2,1.8,5.1,1.8c4,0,7.3-2.9,7.9-6.8
	C30.1,16.8,29.8,16.3,29.4,16.2z M17,20c0,0.6-0.4,1-1,1s-1-0.4-1-1v-8c0-0.6,0.4-1,1-1s1,0.4,1,1V20z"/>
</svg>