{
  "accessors": [
    {
      "bufferView": 2,
      "componentType": 5126,
      "count": 13610,
      "max": [
        20.318191528320313,
        21.52801513671875,
        26.389699935913086
      ],
      "min": [
        -21.739395141601563,
        -21.52801513671875,
        -26.280391693115234
      ],
      "type": "VEC3"
    },
    {
      "bufferView": 2,
      "byteOffset": 163320,
      "componentType": 5126,
      "count": 13610,
      "max": [
        1.0,
        1.0,
        1.0
      ],
      "min": [
        -1.0,
        -1.0,
        -1.0
      ],
      "type": "VEC3"
    },
    {
      "bufferView": 1,
      "componentType": 5126,
      "count": 13610,
      "max": [
        0.9951509833335876,
        0.9948409795761108
      ],
      "min": [
        0.004404000006616116,
        -0.24560189247131348
      ],
      "type": "VEC2"
    },
    {
      "bufferView": 0,
      "componentType": 5125,
      "count": 38691,
      "type": "SCALAR"
    },
    {
      "bufferView": 2,
      "byteOffset": 326640,
      "componentType": 5126,
      "count": 37,
      "max": [
        15.221153259277344,
        7.5624165534973145,
        7.562417984008789
      ],
      "min": [
        13.703916549682617,
        -7.562419414520264,
        -7.5624237060546875
      ],
      "type": "VEC3"
    },
    {
      "bufferView": 2,
      "byteOffset": 327084,
      "componentType": 5126,
      "count": 37,
      "max": [
        0.9999974370002747,
        0.3186894655227661,
        0.3186887800693512
      ],
      "min": [
        0.9469301104545593,
        -0.31868883967399597,
        -0.3186887502670288
      ],
      "type": "VEC3"
    },
    {
      "bufferView": 1,
      "byteOffset": 108880,
      "componentType": 5126,
      "count": 37,
      "max": [
        0.9810199737548828,
        0.9810199737548828
      ],
      "min": [
        0.018980000168085098,
        0.018980026245117188
      ],
      "type": "VEC2"
    },
    {
      "bufferView": 0,
      "byteOffset": 154764,
      "componentType": 5125,
      "count": 180,
      "type": "SCALAR"
    }
  ],
  "asset": {
    "extras": {
      "author": "David.3D.Art (https://sketchfab.com/David.3D.models)",
      "license": "CC-BY-4.0 (http://creativecommons.org/licenses/by/4.0/)",
      "source": "https://sketchfab.com/3d-models/wheatley-core-from-portal-2-c1bdc8523a8849bd81d6aa901daa409f",
      "title": "Wheatley core from portal 2"
    },
    "generator": "Sketchfab-12.68.0",
    "version": "2.0"
  },
  "bufferViews": [
    {
      "buffer": 0,
      "byteLength": 155484,
      "name": "floatBufferViews",
      "target": 34963
    },
    {
      "buffer": 0,
      "byteLength": 109176,
      "byteOffset": 155484,
      "byteStride": 8,
      "name": "floatBufferViews",
      "target": 34962
    },
    {
      "buffer": 0,
      "byteLength": 327528,
      "byteOffset": 264660,
      "byteStride": 12,
      "name": "floatBufferViews",
      "target": 34962
    }
  ],
  "buffers": [
    {
      "byteLength": 592188,
      "uri": "scene.bin"
    }
  ],
  "images": [
    {
      "uri": "textures/body_baseColor.png"
    },
    {
      "uri": "textures/material_baseColor.png"
    }
  ],
  "materials": [
    {
      "doubleSided": true,
      "name": "body",
      "pbrMetallicRoughness": {
        "baseColorTexture": {
          "index": 0
        },
        "metallicFactor": 0.0,
        "roughnessFactor": 0.4517673186419045
      }
    },
    {
      "doubleSided": true,
      "emissiveFactor": [
        1.0,
        1.0,
        1.0
      ],
      "emissiveTexture": {
        "index": 1
      },
      "name": "material",
      "pbrMetallicRoughness": {
        "baseColorTexture": {
          "index": 1
        },
        "roughnessFactor": 0.07480804240371484
      }
    }
  ],
  "meshes": [
    {
      "name": "Object_0",
      "primitives": [
        {
          "attributes": {
            "NORMAL": 1,
            "POSITION": 0,
            "TEXCOORD_0": 2
          },
          "indices": 3,
          "material": 0,
          "mode": 4
        }
      ]
    },
    {
      "name": "Object_1",
      "primitives": [
        {
          "attributes": {
            "NORMAL": 5,
            "POSITION": 4,
            "TEXCOORD_0": 6
          },
          "indices": 7,
          "material": 1,
          "mode": 4
        }
      ]
    }
  ],
  "nodes": [
    {
      "children": [
        1
      ],
      "matrix": [
        0.014064724557101727,
        0.0,
        0.0,
        0.0,
        0.0,
        3.122996207661039e-18,
        -0.014064724557101727,
        0.0,
        0.0,
        0.014064724557101727,
        3.122996207661039e-18,
        0.0,
        0.0,
        0.0,
        0.0,
        1.0
      ],
      "name": "Sketchfab_model"
    },
    {
      "children": [
        2,
        3
      ],
      "name": "wheatley core 3d model.obj.cleaner.materialmerger.gles"
    },
    {
      "mesh": 0,
      "name": "Object_2"
    },
    {
      "mesh": 1,
      "name": "Object_3"
    }
  ],
  "samplers": [
    {
      "magFilter": 9729,
      "minFilter": 9987,
      "wrapS": 10497,
      "wrapT": 10497
    }
  ],
  "scene": 0,
  "scenes": [
    {
      "name": "Sketchfab_Scene",
      "nodes": [
        0
      ]
    }
  ],
  "textures": [
    {
      "sampler": 0,
      "source": 0
    },
    {
      "sampler": 0,
      "source": 1
    }
  ]
}
